<?xml version="1.0" standalone="no"?>
<!DOCTYPE svg PUBLIC "-//W3C//DTD SVG 1.1//EN" "http://www.w3.org/Graphics/SVG/1.1/DTD/svg11.dtd" >
<!--
2013-9-30: Created.
-->
<svg>
<metadata>
Created by iconfont
</metadata>
<defs>

<font id="iconfont" horiz-adv-x="1024" >
  <font-face
    font-family="iconfont"
    font-weight="500"
    font-stretch="normal"
    units-per-em="1024"
    ascent="896"
    descent="-128"
  />
    <missing-glyph />
    
    <glyph glyph-name="zhuanfa" unicode="&#59076;" d="M1024 390.070857c0 10.642286-4.642743 20.143543-11.856457 26.8928L608 765.9648c-6.429257 5.463771-14.6432 8.892343-23.714743 8.892343-20.286171 0-36.642743-16.393143-36.642743-36.642743l0-154.499657C238.714514 533.856914 21.215086 306.750171 0 15.285029c1.000229-12.357486 11.143314-22.178743 23.714743-22.178743 4.856686 0 9.428114 1.464686 13.215086 3.964343 0.071314 0.071314 0-0.213943 0.071314-0.213943 53.357714 37.893486 99.499886 66.143086 135.5008 85.141943 87.356343 48.071314 222.999771 86.893714 375.1424 102.500571l0-143.1424c0-20.286171 16.356571-36.642743 36.642743-36.642743 8.643657 0 16.427886 3.249371 22.714514 8.285257l404.214857 349.070629c0 0.036571-0.142629 0.071314-0.071314 0.107886C1019.000686 368.8576 1024 378.8928 1024 390.070857zM620.929829 121.821257l0 142.142171-39.356343-2.929371c-159.213714-11.856457-371.143314-58.177829-490.929371-143.892114 58.357029 214.571886 244.000914 368.107886 497.929143 398.357943l32.356571 3.856457 0 138.642286 310.357943-268.106971L620.929829 121.821257z"  horiz-adv-x="1024" />

    
    <glyph glyph-name="yijianfankui" unicode="&#58902;" d="M855.324444-178.492444 46.478222-178.492444 46.478222 630.353778 555.576889 630.353778 555.576889 587.687111 89.144889 587.687111 89.144889-135.825778 812.657778-135.825778 812.657778 379.928889 855.324444 379.928889ZM423.765333 38.652444l-186.083556 186.083556 553.699556 553.756444 186.083556-186.083556L423.765333 38.652444zM298.040889 224.736l125.724444-125.724444 493.397333 493.454222-125.724444 125.724444L298.040889 224.736zM423.594667 39.335111 238.592 39.335111 238.592 224.337778 293.205333 224.337778 293.205333 181.671111 281.258667 181.671111 281.258667 82.001778 380.928 82.001778 380.928 90.819556 423.594667 90.819556ZM694.001892 628.267799l136.28614-136.28614-30.209826-30.209826-136.28614 136.28614 30.209826 30.209826Z"  horiz-adv-x="1024" />

    
    <glyph glyph-name="xin" unicode="&#58899;" d="M714.07688 703.734204c-78.336136 0-152.170748-35.124985-201.437825-92.215238-49.267077 57.091276-123.099642 92.215238-201.437825 92.215238-138.79409 0-246.201331-105.373932-246.201331-241.502309 0-166.860309 152.171772-300.780391 382.722658-507.156692l64.916499-57.092299 64.916499 57.092299C808.108486 161.451504 960.279235 295.371586 960.279235 462.231895 960.279235 598.360272 852.871993 703.734204 714.07688 703.734204L714.07688 703.734204zM540.268322 12.843908l-9.093099-8.131191-18.535145-16.305361-18.534122 16.305361-9.049097 8.131191c-108.544135 97.111758-202.224748 180.978864-264.211521 255.971859-60.151985 72.851215-86.993307 132.500756-86.993307 193.417151 0 47.977711 18.142196 92.172259 51.058886 124.455523 32.786731 32.17377 77.638241 49.901527 126.292358 49.901527 56.260351 0 111.86681-25.530466 148.763139-68.284199l52.67571-61.112869 52.677756 61.112869c36.895305 42.753733 92.499717 68.284199 148.760069 68.284199 48.65514 0 93.50665-17.727757 126.292358-49.901527 32.917714-32.283264 51.058886-76.477812 51.058886-124.455523 0-60.915371-26.841322-120.564913-86.992283-193.417151C742.449068 193.822772 648.767432 109.955666 540.268322 12.843908L540.268322 12.843908zM540.268322 12.843908"  horiz-adv-x="1024" />

    
    <glyph glyph-name="search" unicode="&#58920;" d="M922.666667 19.626667 702.677333 247.594667C805.290667 384.298667 796.245333 581.866667 675.008 707.498667 609.344 775.552 523.264 809.578667 437.205333 809.578667 351.146667 809.578667 265.066667 775.552 199.402667 707.498667 68.074667 571.392 68.074667 350.741333 199.402667 214.656 265.066667 146.602667 351.146667 112.576 437.205333 112.576 510.058667 112.576 582.762667 137.237333 643.221333 185.984L863.210667-41.984 922.666667 19.626667ZM258.858667 276.266667C160.512 378.176 160.512 543.978667 258.858667 645.888 306.496 695.253333 369.834667 722.453333 437.205333 722.453333 504.576 722.453333 567.914667 695.253333 615.552 645.888 713.898667 543.978667 713.898667 378.176 615.552 276.266667 567.914667 226.901333 504.576 199.701333 437.205333 199.701333 369.834667 199.701333 306.496 226.901333 258.858667 276.266667Z"  horiz-adv-x="1024" />

    
    <glyph glyph-name="shoucang" unicode="&#58895;" d="M327.728136 91.698724l150.60509 60.966537 33.721009 13.627369 33.721009-13.627369 150.609183-60.914348-4.484128 166.562527-0.907673 32.985252 20.663622 25.711592 96.563266 120.353089L652.842749 484.425224l-30.030967 9.081843-17.825994 25.716708-92.931552 134.033669-92.871177-134.033669-17.825994-25.716708-30.033014-9.081843-155.490354-47.120181 96.566336-120.29476 20.663622-25.711592-0.907673-32.985252L327.728136 91.698724M789.940197-43.129031 512.054235 69.272969 234.17339-43.129031l8.115841 303.886125L62.389956 484.824313l282.879696 85.667102L512.054235 811.130054l166.843936-240.638639 282.711873-85.667102L781.766027 260.756071 789.940197-43.129031 789.940197-43.129031 789.940197-43.129031z"  horiz-adv-x="1024" />

    
    <glyph glyph-name="queren" unicode="&#58897;" d="M512-96C246.896-96 32 118.896 32 384 32 649.104 246.896 864 512 864 777.104 864 992 649.104 992 384 992 118.896 777.104-96 512-96ZM792.832 536.832C780.704 548.96 761.024 548.96 748.896 536.832L447.536 235.472 276.032 406.976C264.16 418.864 244.896 418.864 233.024 406.976 221.136 395.104 221.136 375.84 233.024 363.968L419.664 177.328C421.12 174.416 422.688 171.536 425.12 169.104 437.232 156.976 456.912 156.976 469.04 169.104L792.832 492.896C804.96 505.024 804.96 524.704 792.832 536.832Z"  horiz-adv-x="1024" />

    
    <glyph glyph-name="arrow-right-copy-copy-copy" unicode="&#58884;" d="M357.957 728.824l-49.463-48.973 294.308-296.327-296.782-293.831 49.044-49.381 346.239 342.809z"  horiz-adv-x="1024" />

    
    <glyph glyph-name="kefu" unicode="&#58943;" d="M510.097674 706.505181c-134.373407 0-243.281839-106.623389-243.281839-238.182704 0-131.541919 108.908432-238.179634 243.281839-238.179634 134.3775 0 243.285932 106.636692 243.285932 238.179634C753.383606 599.882815 644.475174 706.505181 510.097674 706.505181L510.097674 706.505181zM510.097674 706.505181M229.17761 376.897232 229.17761 596.790384c-3.079128 0-6.132674-0.125867-9.148357-0.366344C269.882684 704.650951 380.918569 780.025639 510.135536 780.025639c129.21185 0 240.253876-75.374688 290.103214-183.600575-3.016707 0.240477-6.066159 0.366344-9.148357 0.366344l0-219.894176c62.052265 0 112.390743 49.231261 112.390743 109.941971 0 41.235147-23.219841 77.163427-57.552787 95.982028-48.314379 136.089491-180.214455 233.837746-335.792812 233.837746-155.577335 0-287.469224-97.739045-335.788719-233.824443-34.344203-18.815531-57.555857-54.750975-57.555857-95.990215C116.79096 426.128493 167.090553 376.897232 229.17761 376.897232L229.17761 376.897232zM229.17761 376.897232M752.869906 250.839211c-63.570851-58.08593-148.919704-93.65196-242.772232-93.65196-93.676519 0-178.881087 35.435047-242.415099 93.327572C153.974837 193.232189 79.32465 91.277122 79.32465-47.226349l864.503403 0C943.827029 91.534995 867.780029 193.614905 752.869906 250.839211L752.869906 250.839211zM752.869906 250.839211"  horiz-adv-x="1024" />

    
    <glyph glyph-name="zhaoxiangji" unicode="&#58979;" d="M512 608c-124.8 0-224-99.2-224-224s99.2-224 224-224 224 99.2 224 224S636.8 608 512 608zM512 208c-96 0-176 80-176 176s80 176 176 176 176-80 176-176S608 208 512 208zM768 524.8a1.6 1.6 0 1 0 102.4 0 1.6 1.6 0 1 0-102.4 0ZM864 672l-96 0-22.4 67.2c-6.4 16-25.6 28.8-41.6 28.8l-384 0c-19.2 0-35.2-12.8-41.6-28.8l-22.4-67.2-96 0c-54.4 0-96-41.6-96-96l0-448c0-54.4 44.8-96 96-96l704 0c54.4 0 96 41.6 96 96l0 448C960 630.4 918.4 672 864 672zM912 128c0-25.6-22.4-48-48-48l-704 0c-25.6 0-48 22.4-48 48l0 448c0 25.6 22.4 48 48 48l96 0 35.2 0 9.6 32 22.4 64 377.6 0 22.4-64 9.6-32 35.2 0 96 0c25.6 0 48-22.4 48-48L912 128z"  horiz-adv-x="1024" />

    
    <glyph glyph-name="iconfontkuaisushengji" unicode="&#58919;" d="M1116.303338 789.520381c34.338102 0 62.375635-28.037533 62.375635-62.375635l0-686.13198c0-34.338102-28.037533-62.375635-62.375635-62.375635l-935.634518 0c-34.338102 0-62.375635 28.037533-62.375635 62.375635L118.293186 727.144747c0 34.338102 28.037533 62.375635 62.375635 62.375635L1116.303338 789.520381M1116.303338 851.738502l-935.634518 0c-68.676204 0-124.751269-56.075065-124.751269-124.751269l0-686.13198c0-68.676204 56.075065-124.751269 124.751269-124.751269l935.634518 0c68.676204 0 124.751269 56.075065 124.751269 124.751269L1241.054607 727.144747C1241.054607 795.663436 1184.979542 851.738502 1116.303338 851.738502L1116.303338 851.738502zM698.103061 165.764036c-26.777419 93.248423-100.809106 164.28734-191.222273 190.119674 44.891555 26.304876 74.976773 75.134287 74.976773 130.894324 0 83.79757-67.888633 151.686202-151.686202 151.686202s-151.686202-67.888633-151.686202-151.686202c0-56.075065 30.400246-105.06199 75.764344-131.366867-89.78311-26.147362-163.184741-97.028765-189.804645-189.804645-4.725427-16.696508 4.882941-34.023073 21.579449-38.906014 2.99277-0.787571 5.828026-1.260114 8.663283-1.260114 13.703738 0 26.304876 8.978311 30.242732 22.682049 26.304876 91.515767 111.205045 155.466544 206.501154 155.466544 95.296108 0 180.196277-63.950777 206.501154-155.309029 4.725427-16.696508 22.051992-26.304876 38.906014-21.579449C693.377634 131.583449 702.986002 149.067528 698.103061 165.764036zM430.171358 575.773573c48.986925 0 88.838025-39.8511 88.838025-88.838025 0-48.986925-39.8511-88.838025-88.838025-88.838025-48.986925 0-88.838025 39.8511-88.838025 88.838025C341.333333 535.922473 381.184433 575.773573 430.171358 575.773573zM925.396093 614.522074 1082.280265 463.938471 768.354407 463.938471ZM863.020458 446.296877l124.751269 0 0-124.751269-124.751269 0 0 124.751269ZM863.020458 259.169974l124.751269 0 0-31.187817-124.751269 0 0 31.187817ZM863.020458 165.606522l124.751269 0 0-31.187817-124.751269 0 0 31.187817Z"  horiz-adv-x="1298" />

    
    <glyph glyph-name="chakanyanjingshishifenxi" unicode="&#59347;" d="M987.52 528.64c-108.16 146.56-266.88 239.36-444.16 239.36-177.28 0-335.36-92.8-444.16-239.36-48-64.64-48-160.64 0-225.28C208 156.8 366.72 64 543.36 64c177.28 0 335.36 92.8 444.16 239.36C1035.52 368 1035.52 464 987.52 528.64zM939.52 356.48C839.04 211.2 694.4 128 542.72 128c-151.68 0-296.32 83.2-396.8 228.48C121.6 390.4 121.6 440.96 145.92 475.52 246.4 620.8 391.04 704 542.72 704c151.68 0 296.32-83.2 396.8-228.48C963.2 440.96 963.2 390.4 939.52 356.48zM544 640C420.48 640 320 539.52 320 416S420.48 192 544 192 768 292.48 768 416 667.52 640 544 640zM544 256C455.68 256 384 327.68 384 416S455.68 576 544 576C632.32 576 704 504.32 704 416S632.32 256 544 256z"  horiz-adv-x="1024" />

    
    <glyph glyph-name="iconfontdongtai" unicode="&#58925;" d="M605.7 811.3c0.6 0 1.2 0 1.6-0.1 1-5.4 0.8-19.1-7.8-42.2l-74.5-202.2c-19.3-52.3-64-90.2-106.3-90.2-7.9 0-15.6 1.3-22.8 4-47.3 17.4-71.5 70-54.1 117.3 21.6 58.5 103.8 141.3 175.9 177.1l48.3 24C588.5 810.1 601.2 811.3 605.7 811.3M694.3 559.4c10.7 0 21.2-1.9 31.2-5.6 58.5-21.6 141.3-103.8 177.1-175.9l24-48.3c11-22.1 12.6-35.7 12.3-41.2-1.2-0.2-3-0.4-5.6-0.4-6.7 0-18.4 1.4-36.7 8.1l-202.2 74.5c-63.8 23.5-103.3 82.6-86.2 129.1C621.4 535.4 656 559.4 694.3 559.4M90 480c6.7 0 18.4-1.4 36.7-8.1l202.2-74.5c32.5-12 60.2-33.9 76.1-60.1 14.2-23.5 17.8-48 10.1-69-13.2-35.7-47.7-59.7-86-59.7-10.7 0-21.2 1.9-31.2 5.6-58.5 21.5-141.3 103.8-177.1 175.9l-24 48.3c-11 22.1-12.6 35.7-12.3 41.2C85.7 479.8 87.5 480 90 480M604.6 291.5c7.9 0 15.6-1.3 22.8-4 47.3-17.4 71.5-70 54.1-117.3C660 111.7 577.7 28.9 505.6-7l-48.3-24c-22.3-11.1-35.1-12.3-39.6-12.3-0.6 0-1.2 0-1.6 0.1-1 5.4-0.8 19.1 7.8 42.2l74.5 202.2C517.5 253.5 562.3 291.5 604.6 291.5M605.7 854c-15.9 0-35.7-5.4-58.6-16.7l-48.3-24c-82.9-41.2-171.5-131.5-197-200.6C276.3 543.4 312 466 381.2 440.5c12.2-4.5 24.8-6.6 37.5-6.6 59.3 0 120.1 46.7 146.4 118.2l74.5 202.2C662.8 817.1 647.4 854 605.7 854L605.7 854zM694.3 602.1c-54.6 0-106.2-33.6-126.1-87.7-25.5-69.2 24.7-152 111.5-183.9L881.9 256c19.9-7.3 37.1-10.8 51.5-10.8 48.3 0 63.3 39.4 31.6 103.3l-24 48.3c-41.2 82.9-131.5 171.5-200.6 197C725.1 599.5 709.6 602.1 694.3 602.1L694.3 602.1zM90 522.8c-48.4 0-63.3-39.4-31.6-103.3l24-48.3c41.2-82.9 131.5-171.5 200.6-197 15.1-5.6 30.7-8.2 46-8.2 54.6 0 106.2 33.6 126.1 87.7 25.5 69.2-24.7 152-111.5 183.9L141.5 512C121.6 519.3 104.3 522.8 90 522.8L90 522.8zM604.6 334.2c-59.3 0-120.1-46.7-146.4-118.2l-74.5-202.2c-23.1-62.8-7.7-99.8 34-99.8 15.9 0 35.7 5.4 58.6 16.7l48.3 24c82.9 41.2 171.5 131.5 197 200.6 25.5 69.2-10.3 146.6-79.5 172.1C629.9 332 617.3 334.2 604.6 334.2L604.6 334.2z"  horiz-adv-x="1024" />

    
    <glyph glyph-name="iconfontdongtaidianji" unicode="&#58926;" d="M394.7 434.8c62.2-22.9 136.7 22.2 165.4 100.3l67 181.9c28.8 78.1-8.7 111.7-83.2 74.7L500.4 770c-74.5-37-154.3-118.2-177.2-180.5C300.3 527.4 332.4 457.7 394.7 434.8zM461.2 266.7c22.9 62.2-22.2 136.7-100.3 165.4l-181.9 67c-78.1 28.8-111.7-8.7-74.7-83.2l21.6-43.5c37-74.5 118.2-154.3 180.5-177.2C368.6 172.3 438.3 204.4 461.2 266.7zM919.6 352.1 898 395.6c-37 74.5-118.2 154.3-180.4 177.2-62.2 22.9-131.9-9.2-154.8-71.5-22.9-62.2 22.2-136.7 100.3-165.4l181.9-67C923.1 240.1 956.7 277.6 919.6 352.1zM629.3 333.2c-62.2 22.9-136.7-22.2-165.4-100.3l-67-181.9c-28.8-78.1 8.7-111.7 83.2-74.7l43.5 21.6c74.5 37 154.3 118.2 177.2 180.5C723.7 240.6 691.6 310.3 629.3 333.2z"  horiz-adv-x="1024" />

    
    <glyph glyph-name="news" unicode="&#58917;" d="M354.472252 58.018959 124.188984-19.718135l113.873993 132.352865c-106.369082 69.091956-175.105878 177.471274-175.105878 298.95251 0 207.883055 201.215576 377.407118 447.923708 377.407118 246.706133 0 447.92011-169.524063 447.92011-377.407118 0-207.868665-201.213977-377.380136-447.92011-377.380136C455.910077 34.207104 403.215004 42.640586 354.472252 58.018959L354.472252 58.018959 354.472252 58.018959zM309.358839 474.806777c-30.373807 0-54.994114-24.632299-54.994114-54.998511 0-30.374806 24.620307-55.03009 54.994114-55.03009 30.357418 0 54.995113 24.655284 54.995113 55.03009C364.353952 450.174678 339.716256 474.806777 309.358839 474.806777L309.358839 474.806777 309.358839 474.806777zM712.403574 474.806777c-30.352421 0-54.997512-24.632299-54.997512-54.998511 0-30.374806 24.64529-55.03009 54.997512-55.03009 30.397191 0 54.989517 24.655284 54.989517 55.03009C767.393291 450.174678 742.800965 474.806777 712.403574 474.806777L712.403574 474.806777 712.403574 474.806777zM510.880807 474.806777c-30.401388 0-54.993514-24.632299-54.993514-54.998511 0-30.374806 24.592326-55.03009 54.993514-55.03009 30.39819 0 54.994514 24.655284 54.994514 55.03009C565.875321 450.174678 541.278997 474.806777 510.880807 474.806777L510.880807 474.806777z"  horiz-adv-x="1024" />

    
    <glyph glyph-name="shouji" unicode="&#58959;" d="M394.395 100.109c-26.407 0-47.89-21.482-47.89-47.891 0-26.407 21.484-47.891 47.89-47.891 26.408 0 47.893 21.483 47.893 47.891C442.287 78.627 420.803 100.109 394.395 100.109zM631.334 853.931 157.458 853.931c-39.865 0-72.298-32.433-72.298-72.298l0-795.266c0-39.866 32.433-72.298 72.298-72.298l473.875 0c39.865 0 72.297 32.432 72.297 72.298L703.63 781.633C703.631 821.498 671.199 853.931 631.334 853.931zM157.458 805.732l473.875 0c13.289 0 24.1-10.812 24.1-24.1l0-595.808L133.359 185.824 133.359 781.633C133.359 794.921 144.17 805.732 157.458 805.732zM631.334-37.731 157.458-37.731c-13.288 0-24.1 10.81-24.1 24.099L133.358 133.5l522.075 0 0-147.133C655.434-26.922 644.623-37.731 631.334-37.731z"  horiz-adv-x="1024" />

    
    <glyph glyph-name="fenxiang11" unicode="&#58907;" d="M835.613422-62.708971 188.386578-62.708971c-30.514991 0-54.398958 20.067035-54.398958 45.695738L133.98762 573.197036c0 23.99346 18.758226 48.793286 50.167586 48.793286L406.768307 621.990323c12.345166 0 22.335704-9.989515 22.335704-22.335704 0-12.345166-9.989515-22.335704-22.335704-22.335704L184.155207 577.318914c-5.235235 0-5.496178-3.423983-5.496178-4.122901l0-588.531024c1.352811-1.046842 4.711302-2.704598 9.728572-2.704598l647.226844 0c5.016247 0 8.375761 1.657756 9.728572 2.704598l-1.744737 587.091232c0 0.130983-0.327458 5.561669-5.496178 5.561669L615.486956 577.31789c-12.345166 0-22.335704 9.989515-22.335704 22.335704 0 12.345166 9.989515 22.335704 22.335704 22.335704l222.6131 0c30.994921 0 50.167586-26.043143 50.167586-50.167586l1.744737-588.770478C890.01238-42.641937 866.128413-62.708971 835.613422-62.708971zM502.734986 808.37122 370.223996 675.859207 502.734986 808.37122ZM370.233206 653.530666c-5.715165 0-11.429307 2.181689-15.791661 6.544043-8.724709 8.724709-8.724709 22.858614 0 31.583323l132.50792 132.50792c8.724709 8.724709 22.858614 8.724709 31.583323 0s8.724709-22.858614 0-31.583323l-132.50792-132.50792C381.662513 655.712355 375.947348 653.530666 370.233206 653.530666zM639.026068 675.859207 506.515079 808.37122 639.026068 675.859207ZM639.021975 653.530666c-5.715165 0-11.429307 2.181689-15.791661 6.544043l-132.50792 132.50792c-8.724709 8.724709-8.724709 22.858614 0 31.583323 8.724709 8.724709 22.858614 8.724709 31.583323 0l132.50792-132.50792c8.724709-8.724709 8.724709-22.858614 0-31.583323C650.451282 655.712355 644.736117 653.530666 639.021975 653.530666zM505.080403 780.543432 505.080403 385.307785 505.080403 780.543432ZM505.074264 362.973104c-12.345166 0-22.335704 9.989515-22.335704 22.335704L482.738559 780.542408c0 12.345166 9.989515 22.335704 22.335704 22.335704s22.335704-9.989515 22.335704-22.335704l0-395.2336C527.409968 372.963643 517.420453 362.973104 505.074264 362.973104z"  horiz-adv-x="1024" />

    
    <glyph glyph-name="sousuo" unicode="&#58889;" d="M878.790676 112.463246l-192.010417 192.010417c75.010943 116.999474 61.506698 274.730133-40.676621 376.913253-117.874281 117.874281-309.611284 117.874281-427.485565 0s-117.874281-309.611284 0-427.485565c102.18312-102.18312 259.968541-115.742127 376.913253-40.676621l192.06518-192.06498c22.415802-22.415802 58.718589-22.415802 81.079628 0l10.169105 10.169105C901.261041 53.690094 901.261041 89.992681 878.790676 112.463246zM284.498806 319.836647c-81.516932 81.516932-81.516932 214.152804 0 295.724499 81.462369 81.516932 214.152804 81.516932 295.669736 0 81.462169-81.516932 81.462169-214.152804 0-295.615173C498.706373 238.319715 366.015737 238.319715 284.498806 319.836647z"  horiz-adv-x="1024" />

    
    <glyph glyph-name="jiantou-copy-copy" unicode="&#58984;" d="M927.804 543.807l-415.804-415.632-415.803 415.632 63.616 63.445 352.209-352.017 352.102 352.017z"  horiz-adv-x="1024" />

    
    <glyph glyph-name="shaixuan" unicode="&#59059;" d="M597.265067-59.733333c-0.273067 0.477867-0.4096 1.058133-0.785067 1.399467-7.5776 6.621867-10.717867 15.0528-10.683733 25.019733 0.1024 18.466133 0.034133 36.9664 0.034133 55.432533 0 126.600533 0.068267 253.201067-0.1024 379.8016-0.034133 12.014933 3.925333 21.367467 12.356267 29.764267 83.387733 83.182933 166.673067 166.536533 249.9584 249.821867 6.997333 7.031467 12.6976 14.813867 15.496533 24.610133 8.430933 29.0816-13.175467 59.323733-43.485867 60.654933-1.604267 0.068267-3.242667 0.068267-4.846933 0.068267-202.171733 0-404.2752 0-606.446933 0-22.6304 0-40.618667-12.049067-47.479467-32.290133C155.886933 718.609067 158.4128 703.5904 168.584533 690.107733c3.3792-4.437333 7.133867-8.567467 11.0592-12.4928 79.394133-79.496533 158.8224-158.993067 238.3872-238.353067 8.328533-8.2944 12.151467-17.6128 12.117333-29.3888-0.2048-86.254933-0.170667-172.544-0.068267-258.7648 0-13.175467-4.744533-23.4496-16.554667-29.730133-18.8416-10.0352-42.359467 2.935467-44.100267 24.132267-0.170667 2.321067-0.170667 4.7104-0.170667 7.031467 0 81.442133-0.034133 162.850133 0.068267 244.258133 0 3.549867-1.024 5.973333-3.515733 8.430933-78.370133 78.267733-156.808533 156.501333-234.939733 235.008C109.568 661.6064 97.757867 687.7184 97.655467 718.267733 97.4848 769.4336 131.822933 811.963733 178.5856 823.842133 188.416 826.333867 198.8608 827.528533 208.9984 827.562667 411.0336 827.733333 613.000533 827.733333 815.0016 827.665067c42.2912 0 74.683733-18.261333 96.733867-54.408533 21.9136-35.976533 18.875733-86.050133-7.031467-119.261867-4.5056-5.768533-9.352533-11.332267-14.5408-16.4864-79.940267-80.042667-159.914667-160.017067-239.957333-239.889067-2.594133-2.594133-3.652267-5.085867-3.652267-8.8064 0.068267-138.069333-0.034133-276.104533 0.2048-414.139733 0.034133-13.141333-1.365333-25.088-11.605333-34.440533C622.4896-59.733333 609.8944-59.733333 597.265067-59.733333z"  horiz-adv-x="1024" />

    
    <glyph glyph-name="zan" unicode="&#58880;" d="M729.074456-65.131137 414.095691-65.131137c-20.687158 0-37.453007 17.068747-37.453007 38.10383 0 21.064758 16.738219 38.10383 37.453007 38.10383l314.978764 0c2.27174 0 5.650697 0.496304 9.219989 2.921539 3.382027 2.316765 5.111414 5.431709 5.815449 7.609305l135.962601 314.645167c8.654101 19.658735 6.788613 42.11519-4.676509 60.063981-11.520381 17.963117-30.962176 28.688389-52.001351 28.688389l-197.778482 0.054235c-16.57756 0-31.045063 10.988262-35.803437 27.103288-4.650927 16.08842 1.460258 33.459043 15.250332 42.694381 32.125675 21.588691 63.331397 140.283 37.642319 219.082694-14.439874 44.582381-37.642319 43.259246-47.674812 42.694381l-10.9504-0.096191c-14.656815 0-28.447912-5.804193-38.886659-16.363689-10.330276-10.588149-16.008602-24.6494-16.008602-39.647999l0-51.971675c0-60.561307-23.229051-117.509321-65.196885-160.28659-37.181831-37.993313-85.288478-60.835553-137.045259-65.49569l0-413.845493c0-19.798928-7.517207-38.325887-21.255093-52.27662-13.764492-14.034645-32.070416-21.782096-51.324946-21.782096L133.70263-65.13216c-18.685571 0-36.235272 7.444553-49.323359 20.871353-13.168927 13.425777-20.335141 31.293727-20.335141 50.207495L64.04413 420.180014c0 20.719904 7.895831 40.336684 22.309098 55.019081 14.520715 14.710027 33.640168 22.760376 54.029544 22.760376l166.493965 0c39.4812 0 76.472696 15.70161 104.434537 44.128033 27.744901 28.454052 43.185568 66.228377 43.185568 106.467847l0 51.971675c0 35.387975 13.43908 68.585051 37.965683 93.453439 24.580838 24.994254 57.056484 38.737256 91.670839 38.737256l8.760524 0c55.543014 3.226484 99.999528-31.196513 120.768551-94.77555 21.469987-66.186422 15.440667-166.007895-15.198144-236.770542l124.956943 0c46.37726-0.081864 89.265046-23.711028 114.520243-63.290465 25.339108-39.647999 29.313629-89.110527 10.600429-132.286885L813.227064-7.645888c-6.166443-15.909341-17.631566-30.631648-32.829709-41.301661C765.092787-59.560258 747.353774-65.131137 729.074456-65.131137zM138.733203 11.048893l113.465215 0L252.198417 421.876656 140.382772 421.876656 138.733203 11.048893z"  horiz-adv-x="1024" />

    
    <glyph glyph-name="wodeshebei" unicode="&#58915;" d="M66.133721 12.892891c0-41.215704 33.384341-74.607208 74.607208-74.607208l746.078223 0c41.215704 0 74.606185 33.391505 74.606185 74.607208L961.425338 218.06783c0 41.215704-33.390481 74.607208-74.606185 74.607208L662.993434 292.675038 662.993434 488.516402c0 25.739221-20.888749 46.635133-46.62797 46.635133-25.738198 0-46.62797-20.895913-46.62797-46.635133l0-195.841364L140.74093 292.675038c-41.215704 0-74.607208-33.391505-74.607208-74.613348L66.133721 12.892891 66.133721 12.892891 66.133721 12.892891zM159.390685 115.481384c0 25.738198 20.890796 46.630017 46.635133 46.630017 25.737174 0 46.626947-20.891819 46.626947-46.630017s-20.889773-46.632063-46.626947-46.632063C180.281481 68.848297 159.390685 89.742163 159.390685 115.481384L159.390685 115.481384zM327.260997 115.481384c0 25.738198 20.888749 46.630017 46.62797 46.630017 25.738198 0 46.63411-20.891819 46.63411-46.630017s-20.895913-46.632063-46.63411-46.632063C348.149746 68.848297 327.260997 89.742163 327.260997 115.481384L327.260997 115.481384 327.260997 115.481384zM616.364441 684.365952c-108.182908 0-195.841364-87.666642-195.841364-195.84955 0-25.738198 20.888749-46.62797 46.62797-46.62797 25.740244 0 46.62797 20.889773 46.62797 46.62797 0 56.704466 45.886073 102.585423 102.59054 102.585423 56.69935 0 102.579283-45.880957 102.579283-102.585423 0-25.738198 20.894889-46.62797 46.63411-46.62797 25.738198 0 46.62797 20.889773 46.62797 46.62797C812.212968 596.69931 724.547349 684.365952 616.364441 684.365952L616.364441 684.365952 616.364441 684.365952zM616.364441 833.578322c-190.620455 0-345.060897-154.439418-345.060897-345.06192 0-25.738198 20.888749-46.62797 46.63411-46.62797 25.739221 0 46.62797 20.889773 46.62797 46.62797 0 139.145084 112.655779 251.798816 251.797793 251.798816S868.163257 627.661486 868.163257 488.516402c0-25.738198 20.895913-46.62797 46.63411-46.62797 25.739221 0 46.62797 20.889773 46.62797 46.62797C961.425338 679.138904 807.003316 833.578322 616.364441 833.578322L616.364441 833.578322 616.364441 833.578322zM616.364441 833.578322"  horiz-adv-x="1024" />

    
    <glyph glyph-name="xiugaimima" unicode="&#58905;" d="M355.71712 337.03936c-0.512-0.65536-1.04448-1.37216-1.26976-2.23232l-40.18176-148.41856c-2.33472-8.64256 0.06144-17.98144 6.41024-24.53504 4.75136-4.64896 11.01824-7.22944 17.67424-7.22944 2.21184 0 4.42368 0.26624 6.59456 0.86016l146.30912 40.18176c0.22528 0 0.32768-0.22528 0.49152-0.22528 1.69984 0 3.33824 0.63488 4.58752 1.92512l391.168 394.0352c11.63264 11.71456 18.00192 27.68896 18.00192 45.056 0 19.6608-8.2944 39.36256-22.79424 53.94432l-36.94592 37.2736c-14.49984 14.62272-34.05824 22.97856-53.5552 22.97856-17.24416 0-33.0752-6.41024-44.76928-18.10432L356.29056 338.39104C355.88096 338.0224 356.02432 337.46944 355.71712 337.03936L355.71712 337.03936zM849.22368 630.00576l-38.85056-39.1168-62.99648 64.47104 38.31808 38.56384c6.0416 6.12352 17.8176 5.24288 24.73984-1.76128l36.94592-37.29408c3.87072-3.91168 6.08256-9.05216 6.08256-14.15168C853.44256 636.5184 851.92704 632.7296 849.22368 630.00576L849.22368 630.00576zM425.28768 330.83392l282.25536 284.40576 62.99648-64.53248L488.83712 266.89536 425.28768 330.83392 425.28768 330.83392 425.28768 330.83392M373.84192 215.552l20.39808 75.42784 54.39488-54.80448L373.84192 215.552 373.84192 215.552 373.84192 215.552M874.00448 473.84576c-14.82752 0-26.97216-12.14464-27.01312-27.2384l0-326.41024c0-51.95776-51.32288-75.85792-75.63264-75.85792L236.40064 44.3392c-34.0992 0-69.46816 33.71008-75.6736 96.33792L160.72704 637.89056c0 77.80352 56.54528 75.89888 75.6736 75.89888l356.352 0c14.86848 0 26.95168 12.1856 26.95168 27.17696 0 14.97088-12.0832 27.17696-26.95168 27.17696l-360.448 0c-46.63296 0-125.52192-29.22496-125.52192-105.6768l0-525.94688c0-102.83008 64.3072-146.61632 125.52192-146.61632l543.15008 0c69.0176 0 125.5424 43.17184 125.5424 126.13632L900.99712 446.75072C900.89472 461.70112 888.77056 473.84576 874.00448 473.84576L874.00448 473.84576z"  horiz-adv-x="1024" />

    
    <glyph glyph-name="fujin" unicode="&#59018;" d="M512 4.031c-201.874 0-368.638 61.44-368.638 131.657 0 52.662 70.217 96.548 175.542 122.879 26.332 8.777 35.108-35.108 8.777-35.108-70.217-17.554-122.879-43.885-122.879-78.994 0-52.662 140.434-96.548 307.198-96.548 166.765 0 307.198 43.885 307.198 96.548 0 35.108-52.662 61.44-122.879 78.994-26.332 0-17.554 43.885 8.777 35.108 105.325-26.332 175.542-70.217 175.542-122.879 0-70.217-166.765-131.657-368.638-131.657zM494.445 153.243c0 0 8.777-8.777 17.555-8.777 0 0 0 0 0 0 0 0 0 0 0 0s17.555 8.777 17.555 8.777l201.874 228.204c96.548 96.548 70.217 236.981 61.44 245.759v0c-35.108 122.879-114.102 175.542-175.542 201.874-26.332 8.777-61.44 17.554-78.994 17.554 0 0-8.777 0-8.777 0 0 0-8.777 0-17.555 0-8.777 0-17.554 0-17.554 0 0 0 0 0-8.777 0-17.554 0-43.885-8.777-78.994-17.554-61.44-26.332-140.434-78.994-175.542-201.874v0c0-8.777-35.108-149.211 61.44-245.759l201.874-228.204zM512 390.224c-87.771 0-166.765 78.994-166.765 166.765 0 96.548 78.994 166.765 166.765 166.765 87.771 0 166.765-70.217 166.765-166.765 0-87.771-78.994-166.765-166.765-166.765zM512 653.537c52.662 0 96.548-43.885 96.548-96.548 0-52.662-43.885-96.548-96.548-96.548-52.662 0-96.548 43.885-96.548 96.548 0 52.662 43.885 96.548 96.548 96.548z"  horiz-adv-x="1024" />

    
    <glyph glyph-name="scan" unicode="&#58900;" d="M1157.063 429.693h-1115.219c-23.098 0-41.844-18.746-41.844-41.844 0-23.098 18.746-41.844 41.844-41.844h1115.219c23.098 0 41.844 18.746 41.844 41.844-0 23.098-18.746 41.844-41.844 41.844v0zM434.003-44.313h-169.049c-53.727 0-97.58 43.852-97.58 97.58v161.517c0 23.098-18.746 41.844-41.844 41.844-23.098 0-41.844-18.746-41.844-41.844v-161.517c0-99.923 81.177-181.1 181.267-181.1h169.049c23.098 0 41.844 18.746 41.844 41.844-0 22.93-18.746 41.676-41.844 41.676v0zM1073.376 256.628c-23.098 0-41.844-18.746-41.844-41.844v-161.517c0-53.727-43.852-97.58-97.58-97.58l-169.049 0c-23.098 0-41.844-18.746-41.844-41.844s18.746-41.844 41.844-41.844h169.049c99.923 0 181.267 81.344 181.267 181.267v161.517c0 23.098-18.746 41.844-41.844 41.844v0zM763.23 812.313h169.049c53.727 0 97.58-43.852 97.58-97.58v-161.517c0-23.098 18.746-41.844 41.844-41.844 23.098 0 41.844 18.746 41.844 41.844l-0 161.517c0 99.923-81.344 181.267-181.267 181.267h-169.049c-23.098 0-41.844-18.746-41.844-41.844 0.167-23.098 18.746-41.844 41.844-41.844v0zM123.857 511.54c23.098 0 41.844 18.746 41.844 41.844v161.349c0 53.727 43.852 97.58 97.58 97.58h169.049c23.098 0 41.844 18.746 41.844 41.844 0 23.098-18.746 41.844-41.844 41.844h-169.049c-99.923 0-181.267-81.344-181.267-181.267v-161.517c0-23.098 18.746-41.676 41.844-41.676v0z"  horiz-adv-x="1199" />

    
    <glyph glyph-name="quan" unicode="&#58888;" d="M512-128C229.236364-128 0 101.236364 0 384 0 666.763636 229.236364 896 512 896c282.763636 0 512-229.236364 512-512C1024 101.236364 794.763636-128 512-128zM512 800C282.251636 800 96 613.748364 96 384S282.251636-32 512-32c229.748364 0 416 186.251636 416 416S741.748364 800 512 800z"  horiz-adv-x="1024" />

    
    <glyph glyph-name="aite" unicode="&#58890;" d="M514.162246 831.556269c-246.201331 0-446.51045-200.783932-446.51045-447.571618 0-246.772336 201.037712-447.539896 448.157973-447.539896 50.29857 0 99.615788 8.224312 146.523121 24.436552 18.414395 6.370081 31.060413 12.423961 31.472805 12.630668 7.194866 3.217275 12.614296 9.049097 15.213493 16.401552 2.63092 7.305383 2.155083 15.133675-1.299599 22.043039l-2.883677 5.831822c-7.131421 14.262842-24.974811 20.569478-40.156582 13.850449-0.031722-0.031722-5.8001-3.02694-20.094664-8.082072-41.075511-14.627139-84.21196-22.059412-128.235616-22.059412-210.92592 0-382.487298 171.57775-382.487298 382.487298S305.423131 766.487298 516.349051 766.487298c210.894198 0 382.455575-171.5931 382.455575-382.423853-0.887206-51.868321-13.882172-100.486622-36.606733-136.855948-20.664645-33.104979-46.939055-51.994188-72.199369-51.994188-0.317225 0-0.601704 0-0.887206 0-45.829791 0.792039-75.433016 68.586075-75.433016 172.718737l0 185.269587c0 5.53097-1.426489 9.635451-4.373611 12.550851-4.944616 4.944616-12.360516 4.817726-21.267373 4.864798l-2.472308-0.016373-9.223059 0.016373c-7.701402-0.031722-13.469779 0.063445-17.495466-3.945869-3.645017-3.613294-4.119831-9.096169-4.119831-13.469779l0-31.060413c-45.196365 36.100196-80.440054 59.474556-131.9758 60.378136-1.045819 0.016373-2.059915 0.031722-3.074012 0.031722-108.74368 0-198.470237-99.218746-200.657043-222.779899-2.155083-124.701117 84.845387-227.723491 193.969737-229.625818 1.045819-0.01535 2.059915-0.031722 3.074012-0.031722 63.293535 0 122.276904 34.087353 159.992901 92.103698 24.373107-60.251246 61.519122-91.216491 110.48637-92.071975 0.697895-0.01535 1.394766-0.01535 2.060939-0.01535 33.945113 0 66.716494 14.610766 94.924953 42.328038 47.63695 46.796816 76.066443 124.796284 76.066443 208.643947l0 2.883677C959.595154 630.772336 759.761873 831.556269 514.162246 831.556269zM646.73975 354.651578c0-92.230588-58.475809-167.282934-130.390699-167.282934s-130.390699 75.052347-130.390699 167.282934c0 92.246961 58.475809 167.298284 130.390699 167.298284S646.73975 446.897515 646.73975 354.651578z"  horiz-adv-x="1024" />

    
    <glyph glyph-name="yunongtongjingshigantanhao" unicode="&#58928;" d="M512 832C264.512 832 64 631.44 64 384c0-247.456 200.512-448 448-448s448 200.544 448 448C960 631.344 759.36 832 512 832L512 832M512-11.344C293.68-11.344 116.736 165.6 116.736 384 116.736 602.368 293.68 779.264 512 779.264c218.352 0 395.344-176.896 395.344-395.264C907.232 165.6 730.256-11.344 512-11.344L512-11.344M512 608c-20.576 0-37.328-16.768-37.328-37.312l0-242.656c0-20.608 16.752-37.376 37.328-37.376 20.608 0 37.36 16.768 37.36 37.376L549.36 570.688C549.232 591.232 532.608 608 512 608L512 608M512 234.688c-20.576 0-37.328-16.784-37.328-37.392 0-20.544 16.752-37.328 37.328-37.328 20.608 0 37.36 16.784 37.36 37.328C549.232 217.904 532.608 234.688 512 234.688L512 234.688M512 234.688"  horiz-adv-x="1024" />

    
    <glyph glyph-name="fanhui" unicode="&#58999;" d="M328.555136 380.412177l364.265028 364.265028c20.07399 20.049007 20.07399 52.553369 0 72.577393-20.024024 20.049007-52.528386 20.049007-72.577393 0L220.992263 418.028872c-20.024024-20.024024-20.024024-52.528386 0-72.577393 1.578929-1.578929 3.383306-2.83188 5.112534-4.160179 0.300796-0.325779 0.526243-0.701724 0.827039-1.027503l389.877663-389.877663c19.57293-19.57293 51.300418-19.57293 70.873148 0s19.57293 51.300418 0 70.873148L328.555136 380.412177z"  horiz-adv-x="1024" />

    
    <glyph glyph-name="anquan" unicode="&#59022;" d="M165.101068 654.059179c0 41.997991 0.041274 83.996988-0.041274 125.994978-0.013087 6.892788 1.731502 12.959087 6.751852 17.800246 5.867981 5.65859 12.923852 8.233696 20.836415 5.842814 21.678006-6.551521 43.409366-4.858273 65.193074-1.064069 19.12706 3.332135 36.951467 10.003452 53.935289 19.593156 36.408862 20.560583 74.395204 37.555479 115.0392 48.089456 23.471923 6.083412 47.288133 9.540376 71.573459 9.234343 16.688863-0.209391 33.414974 0.02114 50.056523-1.033868 34.222337-2.170418 66.982964-10.978932 98.772138-23.587692 23.915872-9.485008 46.937805-20.854536 68.459775-34.908898 15.236213-9.949091 31.885816-15.050983 49.496805-17.920042 17.307976-2.820738 34.679373-4.189833 52.140366-1.489897 3.789171 0.586899 7.561229 1.451643 11.244698 2.519738 16.096931 4.672036 30.044585-5.635436 30.108006-22.449128 0.065435-17.468039 0.016107-34.937085 0.0151-52.406131 0-58.057674 0.276839-116.116355-0.069461-174.172016-0.497304-83.420156-20.017978-162.510549-57.012733-237.061789-61.743157-124.423539-154.694629-218.422973-278.11148-282.276146-8.485368-4.389157-16.420078-4.466672-24.895379-0.025167-143.877773 75.35961-244.476042 188.847504-300.434773 341.46131-16.337529 44.554976-26.363129 90.712599-29.513054 138.0561-1.915726 28.798306-1.677141 57.747614-2.136191 86.633502-0.281872 17.718704-0.052348 35.445462-0.052348 53.1692C166.005073 654.059179 165.552064 654.059179 165.101068 654.059179zM510.502553 455.726667c0 116.146556 0 231.804868 0 347.344391-0.46207 0.238585-0.678507 0.439922-0.905012 0.454016-1.280506 0.076508-2.565039 0.146976-3.846552 0.147983-45.083487 0.026174-88.295543-8.532682-128.741221-28.910048-35.241105-17.754945-71.116423-33.740134-109.617181-43.201989-8.662545-2.129144-17.137846-5.018337-25.830591-7.59747 0-1.778817 0.008053-3.183145-0.001007-4.585461-0.16107-23.247432-0.447976-46.494863-0.461063-69.742295-0.028187-50.71691-1.163731-101.487174 5.814626-151.929258 2.017401-14.58388 4.475732-29.108365 6.78608-44.007339C339.637505 454.375692 424.97842 455.050173 510.502553 455.726667zM511.404544 455.769954c0.621126-115.703613 1.239232-230.897843 1.860358-346.427299 1.748616 0.745955 3.048249 1.267419 4.319696 1.848278 29.47178 13.490617 55.328545 32.309631 79.262537 53.926229 31.201268 28.17718 58.274112 60.054942 83.203718 93.775949 18.532108 25.066516 37.458837 49.928674 51.350116 78.041425 6.692458 13.546992 14.060403 26.929894 19.029411 41.119152 8.126987 23.212197 14.697636 46.98512 18.648884 71.360041 0.970447 5.988783 0.578845 6.354211-5.425038 6.354211-82.443669 0.001007-164.886332 0.001007-247.330001 0.001007C514.802114 455.769954 513.276983 455.769954 511.404544 455.769954z"  horiz-adv-x="1024" />

    
    <glyph glyph-name="QQ" unicode="&#58974;" d="M512.268258 831.566897c-247.183323 0-447.569968-200.380501-447.569968-447.563825 0-247.189467 200.385621-447.570992 447.569968-447.570992s447.569968 200.380501 447.569968 447.569968c0 247.184347-200.386645 447.564849-447.569968 447.564849z m252.85872-584.692787c-18.997168-16.287968-43.668709 53.628042-47.2134 42.875198-8.642616-26.161294-12.695154-43.646184-38.148944-72.127602-1.35972-1.521494 29.43056-12.647032 38.148944-36.396051 8.346713-22.756875 24.596797-58.811973-81.725503-70.125906-62.389428-6.635801-107.471099 33.244533-111.964932 32.85648-8.325212-0.734126-4.618747 0-13.568528 0-7.321804 0-7.807126-0.534468-14.69685 0-1.899307 0.140272-22.632985-32.85648-115.364231-32.85648-71.878798 0-90.48177 45.243445-76.032701 70.125906 14.464428 24.877342 38.579999 32.122354 35.176604 36.06636-16.73643 19.39546-28.287904 40.1404-35.176604 58.882621-1.705793 4.666869-3.135137 9.209848-4.262434 13.574672-2.611931 10.008479-22.627866-58.76385-44.111028-42.875198-21.483162 15.883533-19.567472 56.309597-5.659014 95.003248 14.033372 39.006959 49.37687 76.562049 49.771065 84.854496 1.412962 30.849665-3.044011 35.975235 0 44.078263 6.780169 18.149391 15.034732 11.190043 15.034733 20.609788 0 118.64476 88.172909 214.829571 196.933079 214.829571 108.755051 0 196.928984-96.184811 196.928984-214.829571 0-4.554242 11.815637 0 17.474651-20.609788 1.165181-4.256291 1.968931-20.684531 0.58771-44.078263-0.658358-11.238165 29.954789-24.914202 45.777913-84.854496 15.845649-59.945414 0-88.215912-7.909514-95.003248z"  horiz-adv-x="1024" />

    
    <glyph glyph-name="jia" unicode="&#58894;" d="M512-128C229.238154-128 0 101.238154 0 384S229.238154 896 512 896s512-229.238154 512-512-229.238154-512-512-512z m236.307692 551.384615H551.384615V620.307692a39.384615 39.384615 0 1 1-78.76923 0v-196.923077H275.692308a39.384615 39.384615 0 1 1 0-78.76923h196.923077v-196.923077a39.384615 39.384615 0 1 1 78.76923 0V344.615385h196.923077a39.384615 39.384615 0 0 1 0 78.76923z"  horiz-adv-x="1024" />

    
    <glyph glyph-name="jian" unicode="&#58896;" d="M512-128C229.238154-128 0 101.238154 0 384S229.238154 896 512 896s512-229.238154 512-512-229.238154-512-512-512z m236.307692 551.384615H275.692308a39.384615 39.384615 0 1 1 0-78.76923h472.615384a39.384615 39.384615 0 0 1 0 78.76923z"  horiz-adv-x="1024" />

    
    <glyph glyph-name="weixin" unicode="&#59195;" d="M352.814545 510.603636m-33.512727 0a33.512727 33.512727 0 1 1 67.025455 0 33.512727 33.512727 0 1 1-67.025455 0ZM502.690909 511.534545m-33.512727 0a33.512727 33.512727 0 1 1 67.025454 0 33.512727 33.512727 0 1 1-67.025454 0ZM576.232727 361.658182m-23.272727 0a23.272727 23.272727 0 1 1 46.545455 0 23.272727 23.272727 0 1 1-46.545455 0ZM694.458182 359.796364m-23.272727 0a23.272727 23.272727 0 1 1 46.545454 0 23.272727 23.272727 0 1 1-46.545454 0ZM512 896C229.003636 896 0 666.996364 0 384s229.003636-512 512-512 512 229.003636 512 512S794.996364 896 512 896z m-87.505455-630.225455c-26.996364 0-48.407273 5.585455-75.403636 11.17091l-75.403636-37.236364 21.410909 64.232727c-53.992727 37.236364-85.643636 85.643636-85.643637 145.221818 0 102.4 96.814545 182.458182 215.04 182.458182 105.192727 0 198.283636-64.232727 216.901819-150.807273-6.516364 0.930909-13.963636 0.930909-20.48 0.93091-102.4 0-182.458182-76.334545-182.458182-170.356364 0-15.825455 2.792727-30.72 6.516363-44.683636-7.447273 0-13.963636-0.930909-20.48-0.93091z m314.647273-75.403636l15.825455-53.992727-58.647273 32.581818c-21.410909-5.585455-42.821818-11.170909-64.232727-11.170909-102.4 0-182.458182 69.818182-182.458182 155.461818s80.058182 155.461818 182.458182 155.461818c96.814545 0 182.458182-69.818182 182.458182-155.461818 0-47.476364-31.650909-90.298182-75.403637-122.88z"  horiz-adv-x="1024" />

    
    <glyph glyph-name="icon-test" unicode="&#58912;" d="M895.386272 675.098891H128.285247L58.553069 472.12713c0-62.553685 50.736545-113.279996 113.328092-113.279996 62.572104 0 113.328092 50.687426 113.328091 113.279996 0-62.553685 50.735521-113.279996 113.308649-113.279996 62.573127 0 113.328092 50.687426 113.328091 113.279996 0-62.553685 50.735521-113.279996 113.328092-113.279996 62.573127 0 113.328092 50.687426 113.328092 113.279996 0-62.553685 50.735521-113.279996 113.309672-113.279996 62.59257 0 113.328092 50.687426 113.328091 113.279996L895.386272 675.098891m-690.400133 35.510772h613.719706c23.097044 0 41.844014 15.311731 41.844014 34.202986 0 18.890232-18.745946 34.230616-41.844014 34.230616H204.986139c-23.096021 0-41.84299-15.310707-41.84299-34.230616 0-18.920932 18.74697-34.202986 41.84299-34.202986M738.482733 353.351979c-30.757514-28.832675-70.753437-44.63457-113.309672-44.634569s-82.59002 15.801894-113.328092 44.634569c-30.775934-28.832675-70.77288-44.63457-113.328091-44.634569s-82.588997 15.801894-113.328092 44.634569c-30.775934-28.832675-70.77288-44.63457-113.328092-44.634569-2.925632 0-5.831822 0.067538-8.718568 0.211824v-249.820766c0-41.632189 37.551244-68.443835 69.733201-68.443835h557.902446c42.015929 0 69.75162 31.06553 69.75162 68.443835V308.929234c-2.907213-0.144286-5.813403-0.231267-8.739035-0.231267-42.516326 0-82.550111 15.821337-113.307625 44.654012m0 0"  horiz-adv-x="1024" />

    
    <glyph glyph-name="clear" unicode="&#58922;" d="M512 856.615385C250.092308 856.615385 39.384615 645.907692 39.384615 384s210.707692-472.615385 472.615385-472.615385 472.615385 210.707692 472.615385 472.615385S773.907692 856.615385 512 856.615385z m96.492308-488.369231l153.6-153.6c7.876923-7.876923 7.876923-19.692308 0-27.569231l-55.138462-55.138461c-7.876923-7.876923-19.692308-7.876923-27.569231 0L525.784615 285.538462c-7.876923 7.876923-19.692308 7.876923-27.56923 0l-153.6-153.6c-7.876923-7.876923-19.692308-7.876923-27.569231 0L261.907692 187.076923c-7.876923 7.876923-7.876923 19.692308 0 27.569231l153.6 153.6c7.876923 7.876923 7.876923 19.692308 0 27.569231l-155.56923 155.56923c-7.876923 7.876923-7.876923 19.692308 0 27.569231l55.138461 55.138462c7.876923 7.876923 19.692308 7.876923 27.569231 0l155.569231-155.569231c7.876923-7.876923 19.692308-7.876923 27.56923 0l153.6 153.6c7.876923 7.876923 19.692308 7.876923 27.569231 0l55.138462-55.138462c7.876923-7.876923 7.876923-19.692308 0-27.56923l-153.6-153.6c-5.907692-7.876923-5.907692-19.692308 0-27.569231z"  horiz-adv-x="1024" />

    
    <glyph glyph-name="jiahao1" unicode="&#58992;" d="M512-62.017c-119.648 0-232.129 46.368-316.737 130.56C110.623 152.798 64 264.799 64 383.998c0 119.169 46.624 231.2 131.232 315.425 84.608 84.191 197.089 130.56 316.737 130.56s232.129-46.369 316.704-130.56c84.672-84.225 131.263-196.256 131.263-315.392 0.033-119.2-46.591-231.233-131.263-315.455C744.13-15.616 631.648-62.017 512-62.017z m0 828.034c-102.624 0-199.072-39.744-271.583-111.937C167.937 581.952 128 486.016 128 384s39.903-197.952 112.384-270.047c72.512-72.192 168.96-111.937 271.583-111.937 102.593 0 199.072 39.744 271.584 111.937 72.48 72.16 112.416 168.063 112.384 270.08 0 102.016-39.904 197.919-112.384 270.016C711.07 726.24 614.593 766.017 512 766.017zM736 416H544V608c0 17.664-14.335 32-32 32s-32-14.336-32-32v-192H288c-17.664 0-32-14.337-32-32.002s14.336-32 32-32h192v-192c0-17.696 14.337-32.001 32.002-32.001s32 14.303 32 32V352h192c17.696 0 32.001 14.336 32.001 32.001s-14.306 32-32.002 32z"  horiz-adv-x="1024" />

    
    <glyph glyph-name="qianbao" unicode="&#58892;" d="M899.992 895.992h-776C55.624 895.992 0 840.368 0 771.984v-775.968c0-68.368 55.624-124.008 123.992-124.008h776c68.368 0 124.008 55.64 124.008 124.008V771.984C1024 840.368 968.36 895.992 899.992 895.992z m59.336-617.16H774.408c-98.616 0-157.504 39.312-157.504 105.152 0 57.976 47.176 105.16 105.16 105.16h237.272v-210.312z m-59.336-342.144h-776c-32.72 0-59.32 26.616-59.32 59.328V771.984c0 32.72 26.6 59.336 59.32 59.336h776c32.72 0 59.336-26.616 59.336-59.336v-218.168H722.056c-93.632 0-169.832-76.192-169.832-169.832 0-78.344 58.192-169.824 222.176-169.824h184.92v-218.152c0.008-32.704-26.608-59.32-59.328-59.32zM757.608 338.168a45.816 45.816 0 1 1 0 91.64 45.816 45.816 0 1 1 0-91.64z"  horiz-adv-x="1024" />

    
    <glyph glyph-name="xiaoxi" unicode="&#59125;" d="M816.489364 52.883697H207.508589c-30.882358 0-55.887868 24.110117-55.887868 53.821813v59.185984c0 14.391778 5.380544 28.116361 14.471596 37.806047l70.133314 93.646844V472.315418c0 79.867002 27.060309 153.967674 76.234265 208.519104 23.094998 25.689079 50.090838 45.733601 80.249719 60.364833 8.450463 4.098341 15.318894 10.918677 18.481933 19.764136 14.794961 41.405015 54.255695 71.062476 100.726076 71.062475 0.029676 0 0.054235-0.004093 0.083911-0.008186a0.528026 0.528026 0 0 0 0.079818 0.008186c46.472428 0 85.933161-29.65746 100.730169-71.062475 3.15997-8.845459 10.030447-15.665795 18.479886-19.764136 30.159904-14.631232 57.156768-34.675754 80.249719-60.364833 49.173956-54.552453 76.232219-128.652102 76.232219-208.519104v-174.972057l70.133313-93.646843c9.095145-9.688663 14.471596-23.414269 14.471597-37.806048v-59.185984c0-29.711695-25.003464-53.82079-55.888892-53.820789z m-0.608867 113.007797l-70.188572 93.588515c-9.093099 9.523911-14.471596 23.357987-14.471596 37.864376V472.315418c0 65.583694-21.787212 125.963876-61.432141 170.096003-19.568684 21.73093-42.691311 38.705534-68.746734 50.465369a191.223183 191.223183 0 0 1-9.311063 3.895726c-15.830547 6.139837-28.788673 19.481703-31.66928 36.217877a51.103912 51.103912 0 0 1-2.0241 7.866154c-5.341658 15.58393-18.805298 27.962865-34.881438 31.507598-0.480954 0.105401-0.937348 0.060375-1.416256 0.150426v-0.097214c-3.149736 0.648776-6.411013 0.98749-9.737782 1.036609-3.328815-0.049119-6.592139-0.387833-9.741875-1.036609v0.097214c-0.478907-0.090051-0.933255-0.045025-1.414209-0.150426-16.078187-3.545756-29.54285-15.924691-34.883485-31.507598a50.859341 50.859341 0 0 1-2.022053-7.866154c-2.882654-16.737196-15.84078-30.078039-31.66928-36.217877a190.467983 190.467983 0 0 1-9.309017-3.895726c-26.059516-11.759835-49.180096-28.734438-68.750827-50.465369-39.640836-44.132126-61.430094-104.513332-61.430094-170.096003v-174.972057c0-14.506389-5.380544-28.340465-14.471597-37.864376l-70.190618-93.588515-0.555656-58.597583 304.437688-0.293688 304.437687 0.293688-0.557702 58.598607zM461.808366 8.666636c11.710716-10.313903 26.688849-15.96767 42.1244-17.451464 2.680039-0.260943 5.372358-0.169869 8.068769-0.171915 2.692319 0.002047 5.383614-0.090051 8.064676 0.171915 15.435551 1.484817 30.413684 7.137561 42.126446 17.451464 7.961322 7.010671 13.95892 15.44476 18.102287 24.777313l58.290591-0.056282c-5.945409-24.721031-19.302625-47.229674-38.880519-64.521502-21.465894-19.046798-48.930409-29.909194-77.964676-32.016181v-0.00614c-3.251044-0.233314-6.426363-0.870834-9.714246-0.870834-0.008186 0-0.01535 0.004093-0.023536 0.004094s-0.019443-0.004093-0.027629-0.004094c-3.287883 0-6.463202 0.636496-9.714246 0.870834v0.00614c-29.03222 2.108011-56.497759 12.969383-77.964676 32.016181-19.576871 17.291828-32.93204 39.800471-38.880519 64.521502l58.290591 0.056282c4.145413-9.331529 10.139941-17.766642 18.102287-24.777313z"  horiz-adv-x="1024" />

    
    <glyph glyph-name="zhuzhuangtu" unicode="&#59002;" d="M320 544h-256v-480h256v480zM256 128h-128v352h128v-352zM640 832h-256v-768h256v768zM576 128h-128v640h128v-640zM64 0h896v-64h-896zM704 64h256v608h-256v-608zM768 608h128v-480h-128v480z"  horiz-adv-x="1024" />

    
    <glyph glyph-name="guanliyuan" unicode="&#59030;" d="M315.392 388.096c-81.92 40.96-137.216 122.88-137.216 221.184 0 135.168 110.592 245.76 245.76 245.76s245.76-110.592 245.76-245.76c0-133.12-104.448-241.664-237.568-245.76h-2.048c-202.752 0-368.64-165.888-368.64-368.64 0-12.288-8.192-20.48-20.48-20.48s-20.48 8.192-20.48 20.48c0 186.368 124.928 344.064 294.912 393.216z m108.544 16.384c112.64 0 204.8 92.16 204.8 204.8s-92.16 204.8-204.8 204.8-204.8-92.16-204.8-204.8 92.16-204.8 204.8-204.8z m561.152-135.168l4.096-10.24-49.152-59.392c-8.192-10.24-8.192-26.624 0-36.864l49.152-57.344-4.096-10.24c-10.24-28.672-24.576-57.344-45.056-79.872l-8.192-8.192-75.776 12.288c-12.288 2.048-26.624-6.144-30.72-18.432l-26.624-73.728-10.24-2.048c-38.912-8.192-77.824-8.192-116.736 0l-12.288 2.048-24.576 71.68c-4.096 12.288-18.432 20.48-30.72 18.432l-77.824-12.288-8.192 8.192c-10.24 10.24-18.432 22.528-24.576 34.816-8.192 14.336-16.384 30.72-20.48 47.104l-4.096 10.24 51.2 57.344c8.192 10.24 8.192 26.624 0 34.816l-49.152 59.392 4.096 10.24c10.24 30.72 26.624 57.344 47.104 81.92l8.192 8.192 73.728-12.288c12.288-2.048 26.624 6.144 32.768 18.432l26.624 71.68 10.24 2.048c36.864 8.192 75.776 8.192 114.688 0l12.288-2.048 24.576-69.632c4.096-12.288 18.432-22.528 32.768-20.48l75.776 10.24 8.192-8.192c10.24-12.288 18.432-22.528 24.576-36.864 6.144-10.24 12.288-26.624 18.432-40.96z m-57.344 24.576c-4.096 8.192-8.192 14.336-14.336 22.528l-53.248-6.144c-32.768-4.096-65.536 16.384-75.776 47.104l-16.384 47.104c-24.576 4.096-49.152 4.096-73.728 0l-18.432-49.152c-10.24-30.72-45.056-51.2-77.824-45.056l-51.2 8.192c-12.288-14.336-20.48-32.768-28.672-49.152l34.816-40.96c20.48-24.576 20.48-63.488 0-88.064l-34.816-40.96c4.096-10.24 8.192-18.432 14.336-28.672 4.096-8.192 8.192-14.336 14.336-20.48l55.296 8.192c32.768 4.096 65.536-16.384 75.776-47.104l16.384-49.152c24.576-4.096 51.2-4.096 75.776 0l18.432 51.2c10.24 30.72 45.056 51.2 75.776 45.056l51.2-8.192c10.24 14.336 20.48 30.72 26.624 49.152l-32.768 38.912c-20.48 24.576-22.528 63.488-2.048 88.064l34.816 40.96c-4.096 8.192-8.192 16.384-14.336 26.624z m-196.608-204.8c-51.2 0-92.16 40.96-92.16 92.16s40.96 92.16 92.16 92.16 92.16-40.96 92.16-92.16-43.008-92.16-92.16-92.16z m0 40.96c28.672 0 51.2 22.528 51.2 51.2s-22.528 51.2-51.2 51.2-51.2-22.528-51.2-51.2 22.528-51.2 51.2-51.2z"  horiz-adv-x="1024" />

    
    <glyph glyph-name="chart" unicode="&#58938;" d="M972.8-128H51.2a51.2 51.2 0 0 0-51.2 51.2V844.8a51.2 51.2 0 0 0 102.4 0v-870.4h870.4a51.2 51.2 0 0 0 0-102.4zM204.8 281.6h153.6v-204.8h-153.6zM460.8 640h153.6v-563.2h-153.6zM716.8 435.2h153.6v-358.4h-153.6z"  horiz-adv-x="1024" />

    
    <glyph glyph-name="eye" unicode="&#59097;" d="M512 678.5c-247.1 0-447.5-309.5-447.5-309.5s200.4-279.5 447.5-279.5 447.5 279.5 447.5 279.5-200.4 309.5-447.5 309.5zM794.1 265.7c-43.6-37.4-87.7-67.1-131-88.1-51.9-25.3-102.8-38.1-151.2-38.1s-99.2 12.8-151.2 38.1c-43.3 21.1-87.4 50.7-131 88.1-45.9 39.4-81.8 79.4-103 104.9 20.8 27.9 56.6 72.5 103.2 117 43.8 41.9 88.1 75 131.5 98.6 51.8 28.1 102.4 42.3 150.4 42.3 47.7 0 97.9-14.1 149.4-41.8 43.3-23.3 87.3-56.2 131-97.7 47.1-44.8 83.6-90.1 104.7-118.4-21-25.6-56.9-65.5-102.8-104.9zM512 594c-116 0-210-94-210-210s94-210 210-210 210 94 210 210-94 210-210 210zM625.1 270.9c-30.2-30.3-70.4-46.9-113.1-46.9s-82.9 16.6-113.1 46.9c-30.3 30.2-46.9 70.4-46.9 113.1 0 42.7 16.6 82.9 46.9 113.1 30.2 30.3 70.4 46.9 113.1 46.9s82.9-16.6 113.1-46.9c30.3-30.2 46.9-70.4 46.9-113.1 0-42.7-16.6-82.9-46.9-113.1z"  horiz-adv-x="1024" />

    
    <glyph glyph-name="close" unicode="&#59113;" d="M544.448 396.8l284.576 284.576a32 32 0 0 1-45.248 45.248L499.2 442.048 214.624 726.624a32 32 0 0 1-45.248-45.248l284.576-284.576-284.576-284.576a32 32 0 0 1 45.248-45.248l284.576 284.576 284.576-284.576a31.904 31.904 0 0 1 45.248 0 32 32 0 0 1 0 45.248L544.448 396.8z"  horiz-adv-x="1024" />

    
    <glyph glyph-name="bofangshu" unicode="&#58981;" d="M800 768H224C134.4 768 64 697.6 64 608v-448c0-89.6 70.4-160 160-160h576c89.6 0 160 70.4 160 160V608c0 89.6-70.4 160-160 160z m96-608c0-54.4-41.6-96-96-96H224c-54.4 0-96 41.6-96 96V608c0 54.4 41.6 96 96 96h576c54.4 0 96-41.6 96-96v-448zM684.8 412.8l-256 112c-22.4 9.6-44.8-6.4-44.8-28.8v-224c0-22.4 22.4-38.4 44.8-28.8l256 112c25.6 9.6 25.6 48 0 57.6z"  horiz-adv-x="1024" />

    
    <glyph glyph-name="kefu1" unicode="&#58927;" d="M933.021024 506.29861c-26.150374 32.961634-61.90949 55.949638-101.317496 65.071862-3.162371 72.856159-36.853783 140.968761-95.479273 192.296472-60.085046 52.665637-139.509205 81.735123-223.555292 81.735123-175.9981 0-319.277824-127.954389-319.277824-285.099893l0.243259-9.122224c-39.408006-8.878964-75.288752-31.502079-101.682385-64.220454-28.339708-34.907709-43.908303-79.667419-43.908302-125.643425 0-107.155719 82.58653-194.364176 184.147286-194.364176h52.422378c15.811854 0 28.704597 12.892743 28.704596 28.704596V526.97565c0 15.811854-12.892743 28.704597-28.704596 28.704597h-33.813042l-0.12163 4.865186c0 125.521796 117.494239 227.6907 261.99026 227.6907 139.144316 0 252.138259-92.560162 261.382112-212.243735h-34.177931c-15.811854 0-28.704597-12.892743-28.704597-28.704597v-332.048937c0-15.811854 12.892743-28.704597 28.704597-28.704596h5.108445c-25.542226-53.760304-75.77527-96.087421-131.846537-110.682979-18.730966 38.313339-57.409193 62.639268-100.344459 62.639268-61.544601 0-111.656016-50.111415-111.656016-111.656016s50.111415-111.656016 111.656016-111.656016c58.868749 0 107.642238 46.219266 111.412757 104.358237 40.502673 9.852001 78.937641 30.650671 111.534386 60.328305 32.840005 30.042523 57.530823 67.017936 71.396603 107.398979 45.124599 3.770519 86.965198 24.934078 118.345647 59.963416 32.718375 36.367265 50.719563 84.046086 50.719563 134.035871-0.12163 45.611118-15.446965 90.127569-43.178525 125.035277zM918.790355 381.263333c0-75.77527-56.801045-137.319872-126.616463-137.319872h-23.717781V518.704834h23.717781c69.815418 0 126.616463-61.666231 126.616463-137.441501zM255.908778 498.271054v-273.909966h-23.839411c-69.937047 0-126.859722 61.422972-126.859722 136.954983S162.253949 498.271054 232.190997 498.271054H255.908778z m311.128637-471.314883c0-29.920893-24.447559-54.368452-54.368452-54.368453s-54.368452 24.447559-54.368452 54.368453 24.325929 54.368452 54.368452 54.368452c29.920893 0 54.368452-24.447559 54.368452-54.368452z"  horiz-adv-x="1024" />

    
    <glyph glyph-name="shanchu" unicode="&#58883;" d="M842.410667 569.002667c-20.138667 0-37.888-16.384-37.888-36.522667v-546.645333c-0.170667-9.728-4.096-18.944-10.922667-25.6-6.997333-6.826667-16.213333-10.410667-25.941333-10.410667H256.512c-20.138667-0.170667-36.693333 15.872-37.034667 36.010667V534.016c0 20.138667-14.677333 36.522667-34.816 36.522667-20.138667 0-34.986667-16.384-34.986666-36.522667v-548.181333c0-60.416 46.592-112.981333 106.837333-112.981334h511.317333c60.416 0 112.64 52.565333 112.64 112.981334V532.48c-0.170667 20.138667-17.92 36.522667-38.058666 36.522667zM436.053333 131.754667V533.333333c0 20.138667-14.677333 36.522667-34.986666 36.522667-20.138667 0-34.986667-16.213333-34.986667-36.522667v-401.749333c0-20.138667 14.677333-36.522667 34.986667-36.522667 20.309333 0.170667 34.986667 16.554667 34.986666 36.693334z m221.696 0V533.333333c0 20.138667-17.749333 36.522667-37.888 36.522667-20.138667 0-37.888-16.213333-37.888-36.522667v-401.749333c0-20.138667 17.749333-36.522667 37.888-36.522667 20.138667 0.170667 37.888 16.554667 37.888 36.693334z m328.874667 582.656H804.522667V788.992c0 60.416-49.152 106.154667-109.226667 106.154667H329.386667c-60.245333 0-109.909333-45.738667-109.909334-106.154667v-74.581333H37.376C17.066667 714.410667 0.853333 699.733333 0.853333 679.424c0-20.138667 16.213333-34.816 36.522667-34.816h949.418667c20.138667 0 36.522667 14.677333 36.522666 34.816s-16.384 34.986667-36.693333 34.986667z m-258.048 0H290.304V788.992c0 20.138667 19.114667 36.181333 39.082667 36.181333h365.909333c19.968 0 33.28-15.701333 33.28-36.181333v-74.581333z"  horiz-adv-x="1024" />

    
    <glyph glyph-name="bangding" unicode="&#58881;" d="M333.062 162.938c-58.348-52.21-97.04-49.05-136.467-9.492l-45.157 48.463c-39.428 39.541-39.428 103.667 0 143.226l193.26 193.849c39.428 39.559 103.357 39.559 142.785 0l35.68-35.794c30.457-30.556 37.398-75.763 20.801-112.998l86.286-66.04c59.15 59.33 59.15 155.518 0 214.83L523.162 646.4c-59.133 59.33-155.01 59.33-214.16 0L44.35 380.928c-59.133-59.314-59.133-155.502 0-214.83l107.088-107.416c59.134-59.314 155.027-59.314 214.177 0l102.162 105.647-72.98 70.034-61.735-71.425z m654.134 447.667L880.123 718.02c-59.149 59.33-155.026 59.33-214.177 0 0 0 4.224 1.065-57.988-61.343l71.113-68.167 31.605 34.877c39.428 39.542 103.357 39.542 142.784 0l35.696-35.81c39.428-39.542 39.428-103.668 0-143.226L714.82 263.153c-39.428-39.542-103.341-39.542-142.77 0l-29.395 48.462c-61.883 46.254-42.865 57.318-37.611 88.545l-78.495 77.71c-59.15-59.33-59.15-155.518 0-214.83l107.073-107.434c59.149-59.313 155.026-59.313 214.177 0l239.398 240.167c84.387 97.302 0 214.832 0 214.832z"  horiz-adv-x="1025" />

    
    <glyph glyph-name="dizhi" unicode="&#58885;" d="M171.7 485.699c21.196 0 30.402 9.2 30.402 32.399 0.696 32.404 4.198 78.3 14.1 108.6 40.295 122 180.398 219.3 309.095 215.004 184.601 0 297.804-171.3 297.804-324.3-5.002-68.404-18.4-95.898-36.802-130.407C722.6 270.003 621.5 160.701 528.097 68.301c-4.997-4.9-21.898-11.3-34.698 1.398-28.298 26.101-83.497 74.7-109.599 102.901-67.2 73.298-104.704 129.7-151.398 224.901-9.902 16.2-18.401 26.799-36.803 18.3-16.998-6.298-19.097-22.6-10.598-42.302 9.2-20.398 19.799-40.197 31.099-59.899 70-119.9 162.698-220.698 266-313.001 20.5-17.597 38.2-17.597 57.302 0.701C595.4 53.5 647 108.498 695.798 167 747.402 229.699 795.5 296.003 831.6 369.3c23.997 49.398 41.697 100.096 42.398 155.802-1.397 79.002-24.8 151.598-70.697 216.5C719.202 859.3 571.3 916.5 432.702 884.7 265.8 845.9 146.902 697.2 146.902 525.102c0-22.502 3.6-39.403 24.796-39.403zM1014.901-67.8c-48.901 85.3-92.703 162.202-141.502 246.8-6.4 10.598-24.1 31-41 23.997C815.4 196.7 815.4 173.404 823.198 160 860.698 97.198 951.9-55.7 958.3-67H61.998c13.404 23.296 55.204 87.398 68.603 107.202 25.498 44.396 38.897 66.995 63.698 110.695 13.399 23.3 17.7 43.008-1.398 52.203-16.998 4.199-32.502-3.502-42.399-21.197C103.798 100.803 58.496 18.3 10.4-62.1c-18.402-30.3 2.099-60.6 35.4-60.6 148.5 1.402 297.8 0.7 446.3 0.7h488.1c31.103-0.102 49.5 28.1 34.703 54.201z m-505.104 453.3c79.903 0 145.7 64.9 145.7 145.202 0 79.698-65.1 145.198-144.998 145.198-80.6 0-145.7-64.9-145.7-145.203 0-79.6 65.1-145.198 144.998-145.198z m0.702 248.201c55.9 0 101.898-46.505 101.898-101.504 0.702-55.7-45.297-102.195-100.398-102.896-58-0.702-104.704 45.097-104.704 102.195-0.097 56.402 45.906 102.205 103.204 102.205z"  horiz-adv-x="1024" />

    
    <glyph glyph-name="yijianfankui1" unicode="&#59115;" d="M327.237189 622.121514h369.553297c14.640432 0 26.540973 12.09427 26.540973 27.039135s-11.900541 27.039135-26.540973 27.039135H327.237189a26.734703 26.734703 0 0 1-26.513297-27.039135c0-14.861838 11.817514-27.039135 26.513297-27.039135m0-150.002163h263.389406c14.695784 0 26.402595 12.09427 26.402594 27.039135s-11.706811 27.011459-26.402594 27.01146h-263.389406c-14.695784 0-26.513297-12.066595-26.513297-27.01146s11.817514-27.039135 26.513297-27.039135m602.167352 84.742919l-66.476973 39.29946V854.818595A27.094486 27.094486 0 0 1 836.054486 882.162162H187.834811c-14.806486 0-26.845405-12.177297-26.845406-27.343567v-258.656865l-66.504648-39.29946-52.971243-27.039135v-617.056865c0-3.763892 0.719568-7.251027 2.103351-10.461405 0.110703-0.332108 0.304432-0.553514 0.415135-0.747243a22.140541 22.140541 0 0 1 2.629189-4.48346c4.621838-6.476108 11.955892-10.793514 20.452325-11.097946 0.332108 0 0.608865-0.110703 0.913297-0.110702h887.946378c14.668108 0 26.513297 12.09427 26.513297 26.928432V527.276973l-53.081945 29.585297m-66.476973-23.192216l62.519351-36.947027-62.519351-36.974703v73.92173M231.174919 828.194595h561.594811c13.228973 0 17.186595-4.040649 17.186594-17.518703v-382.367135l-297.984-176.266379L213.932973 428.419459V810.675892c0 13.478054 4.096 17.518703 17.241946 17.518703M160.989405 459.720649l-62.519351 36.974702 62.519351 36.947027v-73.921729m768.415136-519.942919H94.484757v496.778378l404.147892-239.090162c0.442811-0.332108 0.83027-0.442811 1.273081-0.636541l1.771243-0.83027a25.821405 25.821405 0 0 1 2.933622-1.162378 10.073946 10.073946 0 0 1 1.992648-0.442811c0.940973-0.221405 1.881946-0.442811 2.933622-0.442811h5.036973c0.940973 0.110703 1.992649 0.332108 2.905946 0.442811 0.636541 0.221405 1.356108 0.304432 1.992648 0.442811 1.079351 0.304432 1.992649 0.719568 3.072 1.162378 0.608865 0.332108 1.134703 0.553514 1.771244 0.83027 0.415135 0.221405 0.83027 0.332108 1.245405 0.636541l403.815784 239.22854v-496.916756"  horiz-adv-x="1024" />

    
    <glyph glyph-name="cheliangweixiubaoyang" unicode="&#58903;" d="M354.76704 759.392c0-63.104-50.656-114.208-113.216-114.208-62.464 0-113.184 51.104-113.184 114.208 0 63.136 50.688 114.24 113.184 114.24 62.528 0.032 113.216-51.072 113.216-114.24m332.864-505.248c-95.2 0-172.352-77.952-172.352-174.112 0-96.096 77.184-173.984 172.352-173.984 95.264 0 172.448 77.888 172.448 173.984 0 96.192-77.184 174.112-172.448 174.112m0-254.144c-43.84 0-79.328 35.904-79.328 80.032 0 44.288 35.488 80.192 79.328 80.192 43.872 0 79.392-35.904 79.392-80.192A79.712 79.712 0 0 0 687.63104 0m47.072 525.792c-6.112 27.072-239.424 279.744-298.24 241.056-42.24-27.808-6.464-71.904-6.464-71.904 78.752-19.36 231.264-198.944 231.264-198.944l-242.88-94.016c-28.8-18.432-82.976-18.432-82.976-116.128v-138.144c0-42.72 52.672-91.008 94.976-91.008h40.736c-0.704 0-1.056 18.656-1.056 26.144 0 119.808 96.192 218.976 214.848 218.976 118.72 0 214.976-100.128 214.976-220 0-7.392-0.416-25.12-1.12-25.12h127.456V641.376l-291.52-115.584m-334.4-238.464c-46.464 91.2 142.336 96.224 142.336 96.224l-142.336-96.224m48.704 216.928s-41.312 28.512-114.592-4.64c-96.672-43.584-80.032 124.416-179.52 158.432 0 0-100.448 0-143.776-169.952 0 0-34.048-110.432 17.152-255.616v-250.496s51.136-80.128 127.936 0V236.16s-1.088 158.496 57.312 217.44c0 0 13.088-55.296 112.544-51.616 0.032 0 220.288 31.296 122.944 102.272m0 0"  horiz-adv-x="1026" />

    
    <glyph glyph-name="jiahao" unicode="&#59007;" d="M851.231 333.128H562.898v-288.38c0-28.104-22.796-50.875-50.896-50.875-28.104 0-50.896 22.771-50.896 50.875v288.38H172.77c-28.126 0-50.896 22.77-50.896 50.874 0 28.091 22.771 50.871 50.896 50.871h288.332V723.255c0 28.093 22.796 50.872 50.896 50.872 28.104 0 50.896-22.784 50.896-50.872v-288.383h288.338c28.125 0 50.896-22.779 50.896-50.871-0.004-28.104-22.771-50.87-50.896-50.87v-0.003z m0 0"  horiz-adv-x="1024" />

    
    <glyph glyph-name="yonghu" unicode="&#58882;" d="M512 270.222c-159.289 0-284.444 125.156-284.444 284.445S352.71 839.11 512 839.11s284.444-125.155 284.444-284.444S671.29 270.222 512 270.222z m0 56.89c125.156 0 227.556 102.4 227.556 227.555S637.156 782.222 512 782.222s-227.556-102.4-227.556-227.555S386.844 327.11 512 327.11zM56.889-128c0 250.311 204.8 455.111 455.111 455.111S967.111 122.311 967.111-128h-56.889c0 221.867-176.355 398.222-398.222 398.222S113.778 93.867 113.778-128h-56.89z"  horiz-adv-x="1024" />

    
    <glyph glyph-name="nanxing" unicode="&#58936;" d="M915.2 832H563.2c-25.6 0-44.8-19.2-44.8-44.8 0-25.6 19.2-44.8 44.8-44.8h236.8L640 576c-64 51.2-140.8 89.6-224 89.6-192 0-352-166.4-352-364.8S224-64 416-64 768 102.4 768 300.8c0 76.8-25.6 153.6-64 211.2l172.8 179.2v-268.8c0-25.6 19.2-44.8 44.8-44.8 25.6 0 44.8 19.2 44.8 44.8V787.2c-6.4 25.6-25.6 44.8-51.2 44.8zM416 25.6c-147.2 0-262.4 121.6-262.4 275.2S268.8 576 416 576s262.4-121.6 262.4-275.2-115.2-275.2-262.4-275.2z"  horiz-adv-x="1024" />

    
    <glyph glyph-name="zuihoudinggao-" unicode="&#58942;" d="M588.8 832C390.4 832 224 659.2 224 448c0-76.8 25.6-153.6 64-217.6l-32-25.6-83.2 89.6c-19.2 19.2-44.8 19.2-64 0-19.2-19.2-19.2-44.8 0-64l89.6-89.6-121.6-121.6c-19.2-19.2-19.2-44.8 0-64 6.4-12.8 19.2-19.2 32-19.2s25.6 6.4 32 12.8l115.2 128 83.2-89.6c6.4-6.4 19.2-12.8 32-12.8s25.6 6.4 32 12.8c19.2 19.2 19.2 44.8 0 64L320 140.79999999999995l25.6 25.6c64-57.6 147.2-96 243.2-96 204.8 0 371.2 172.8 371.2 377.6s-166.4 384-371.2 384z m0-672c-153.6 0-281.6 128-281.6 288s128 288 281.6 288 281.6-128 281.6-288-128-288-281.6-288z"  horiz-adv-x="1024" />

    
    <glyph glyph-name="shezhi1" unicode="&#58940;" d="M977.389427 281.313481c-36.121915 22.0006-57.815529 60.373738-57.815529 102.737683s21.591286 80.634756 57.815529 102.737684c14.223643 8.697911 18.930748 27.117018 10.642151 41.545318L874.754072 724.190667c-8.288598 14.4283-26.605376 19.544719-41.238333 11.563105-37.145198-20.261017-81.146398-19.749375-117.779954 1.330269-36.633557 21.181973-59.04347 59.04347-60.066753 101.407415-0.409313 16.679524-14.018987 29.982212-30.698511 29.982212H398.722494c-16.679524 0-30.289198-13.302688-30.698511-29.982212-1.023284-42.363945-23.433197-80.225442-60.066753-101.407415-36.633557-21.079644-80.634756-21.591286-117.779954-1.330269-14.632957 7.981613-32.949735 2.865194-41.238333-11.563105L35.661437 528.334166c-8.390926-14.4283-3.683821-32.949735 10.64215-41.545318 36.121915-22.0006 57.815529-60.373738 57.81553-102.737684 0-42.261617-21.591286-80.634756-57.81553-102.737683-14.223643-8.697911-18.930748-27.117018-10.64215-41.545319l113.277506-195.958829c8.288598-14.4283 26.605376-19.544719 41.238333-11.563105 37.145198 20.261017 81.146398 19.749375 117.779954-1.330269 36.633557-21.181973 59.04347-59.04347 60.066753-101.407415 0.409313-16.679524 14.018987-29.982212 30.698511-29.982212h226.248027c16.679524 0 30.289198 13.302688 30.698511 29.982212 1.023284 42.363945 23.433197 80.225442 60.066753 101.407415 36.531228 21.079644 80.634756 21.591286 117.779954 1.330269 14.632957-7.981613 32.949735-2.865194 41.238333 11.563105l113.277506 195.958829c8.390926 14.4283 3.581493 32.847407-10.642151 41.545319zM835.35765 98.248026c-19.135405 6.651344-39.396423 10.02818-59.65744 10.028181h-0.511642c-31.517138-0.102328-62.727291-8.493255-90.151294-24.354152-27.424003-15.860897-50.345558-38.680124-66.206456-66.001799-10.335165-17.702808-17.498151-37.145198-21.386629-57.201559H426.146497c-3.888478 20.056361-11.051464 39.396423-21.386629 57.201559-15.860897 27.321675-38.680124 50.140901-66.206455 66.001799-27.424003 15.860897-58.634156 24.251824-90.151294 24.354152h-0.511642c-20.363346 0-40.522035-3.479165-59.65744-10.028181l-85.751174 148.376137c15.451584 13.405016 28.651944 29.265914 38.782452 47.07105 15.758569 27.321675 24.047167 58.634156 24.047167 90.355951s-8.288598 62.931948-24.047167 90.355951c-10.232837 17.805136-23.433197 33.666034-38.782452 47.07105l85.751174 148.376137c19.135405-6.651344 39.396423-10.02818 59.65744-10.02818h0.511642c31.517138 0.102328 62.727291 8.493255 90.151294 24.354152 27.424003 15.860897 50.345558 38.680124 66.206455 66.001799 10.335165 17.702808 17.498151 37.145198 21.386629 57.201558h171.297692c3.888478-20.056361 11.051464-39.396423 21.386629-57.201558 15.860897-27.321675 38.680124-50.140901 66.206456-66.001799 27.424003-15.860897 58.634156-24.251824 90.151294-24.354152 20.465674 0 40.82902 3.376836 60.169082 10.02818l85.751174-148.376137c-15.451584-13.405016-28.651944-29.265914-38.782452-47.07105-15.758569-27.321675-24.047167-58.634156-24.047167-90.355951s8.288598-62.931948 24.047167-90.355951c10.232837-17.805136 23.433197-33.666034 38.782452-47.07105l-85.751174-148.376137zM511.897672 595.666234c-116.75667 0-211.717398-94.960727-211.717398-211.717398s94.960727-211.717398 211.717398-211.717398c19.135405 0 38.168482 2.558209 56.587588 7.674628 16.372539 4.502448 25.889078 21.386629 21.38663 37.759168-4.502448 16.372539-21.386629 25.889078-37.759169 21.38663-12.995703-3.581493-26.503048-5.423404-40.215049-5.423404-82.88598 0-150.320376 67.434396-150.320376 150.320376s67.434396 150.320376 150.320376 150.320376S662.115719 466.834816 662.115719 383.948836c0-13.20036-1.739582-26.298391-5.116419-38.884781-4.40012-16.372539 5.321075-33.25672 21.693615-37.554512 16.372539-4.40012 33.25672 5.321075 37.554512 21.693615 4.707105 17.805136 7.162986 36.224243 7.162986 54.745678 0.102328 116.75667-94.858399 211.717398-211.512741 211.717398z"  horiz-adv-x="1024" />

    
    <glyph glyph-name="bianji" unicode="&#59136;" d="M703.921 326.666h-489.54c-20.438 0-37.008 16.57-37.008 37.007 0 20.438 16.569 37.006 37.008 37.006h489.54c20.438 0 37.008-16.568 37.008-37.006 0-20.436-16.57-37.007-37.008-37.007zM494.118 536.47H214.381c-20.438 0-37.008 16.57-37.008 37.007s16.569 37.007 37.008 37.007h279.736c20.44 0 37.008-16.57 37.008-37.007s-16.567-37.007-37.007-37.007zM950.742 538.48c0 20.437-16.568 37.007-37.006 37.007-20.427 0-36.988-16.554-37.006-36.976h-0.013v-567.73c0-13.608-11.068-24.671-24.671-24.671H136.192c-13.604 0-24.672 11.063-24.672 24.672V756.57c0 13.602 11.066 24.67 24.672 24.67h497.796v0.034h0.034c20.438 0 37.006 16.568 37.006 37.006 0 20.44-16.568 37.007-37.006 37.007-0.219 0-0.43-0.03-0.645-0.033H136.192c-54.416 0-98.685-44.27-98.685-98.685V-29.22c0-54.417 44.27-98.685 98.685-98.685h715.854c54.415 0 98.684 44.268 98.684 98.685V538.239c0.001 0.08 0.012 0.158 0.012 0.24zM668.954 536.47c-9.472 0-18.942 3.611-26.17 10.84-14.45 14.45-14.45 37.882 0 52.335l279.74 279.736c14.452 14.453 37.883 14.453 52.337 0 14.45-14.451 14.45-37.883 0-52.336L695.123 547.31c-7.227-7.229-16.698-10.84-26.17-10.84z"  horiz-adv-x="1024" />

    
    <glyph glyph-name="shezhi" unicode="&#58956;" d="M912 547.2c11.2-28.8 4.8-62.4-16-84.8-40-43.2-40-112 0-156.8 20.8-22.4 27.2-56 16-84.8-14.4-36.8-35.2-72-59.2-102.4-19.2-24-51.2-35.2-80-28.8-28.8 6.4-57.6 1.6-83.2-12.8s-43.2-38.4-52.8-65.6c-9.6-30.4-35.2-51.2-65.6-56-19.2-1.6-40-3.2-59.2-3.2-19.2 0-40 1.6-59.2 4.8-30.4 4.8-56 25.6-65.6 56-17.6 57.6-76.8 91.2-136 78.4-30.4-6.4-60.8 4.8-80 28.8-24 32-44.8 65.6-59.2 102.4-11.2 28.8-4.8 62.4 16 84.8 40 43.2 40 112 0 156.8-20.8 22.4-27.2 56-16 84.8 14.4 36.8 35.2 72 59.2 102.4 19.2 24 51.2 35.2 81.6 28.8 28.8-6.4 57.6-1.6 83.2 12.8s43.2 38.4 52.8 65.6c9.6 30.4 35.2 51.2 65.6 56 38.4 4.8 78.4 4.8 118.4 0 30.4-4.8 56-25.6 65.6-56 8-27.2 27.2-51.2 52.8-65.6 25.6-14.4 54.4-19.2 83.2-12.8 30.4 6.4 62.4-4.8 80-28.8 22.4-33.6 43.2-67.2 57.6-104z m-59.2-24c-12.8 30.4-30.4 60.8-51.2 86.4-3.2 4.8-9.6 6.4-16 4.8-43.2-9.6-89.6-3.2-128 19.2-40 22.4-68.8 59.2-81.6 102.4-1.6 6.4-6.4 11.2-12.8 11.2-33.6 4.8-67.2 4.8-100.8 0-6.4-1.6-11.2-4.8-12.8-11.2-12.8-43.2-41.6-80-81.6-102.4-38.4-22.4-84.8-28.8-129.6-19.2-6.4 1.6-12.8-1.6-16-4.8-20.8-27.2-38.4-56-51.2-86.4-1.6-6.4-1.6-12.8 3.2-17.6 62.4-68.8 62.4-174.4 0-243.2-4.8-4.8-4.8-11.2-3.2-16 12.8-32 30.4-60.8 49.6-86.4 3.2-4.8 11.2-6.4 16-6.4 91.2 20.8 182.4-33.6 211.2-121.6 1.6-6.4 6.4-9.6 12.8-11.2 16-1.6 33.6-3.2 49.6-3.2 17.6 0 33.6 1.6 51.2 3.2 6.4 1.6 11.2 4.8 12.8 11.2 12.8 43.2 41.6 80 81.6 102.4 38.4 22.4 84.8 28.8 129.6 19.2 6.4-1.6 12.8 1.6 16 4.8 20.8 27.2 38.4 56 51.2 86.4 1.6 4.8 1.6 12.8-3.2 17.6-62.4 68.8-62.4 174.4 0 243.2 4.8 4.8 4.8 11.2 3.2 17.6zM505.6 224c-88 0-160 72-160 160s72 160 160 160 160-72 160-160-70.4-160-160-160z m0 64c52.8 0 96 43.2 96 96s-43.2 96-96 96-96-43.2-96-96 43.2-96 96-96z"  horiz-adv-x="1024" />

    
    <glyph glyph-name="youjian" unicode="&#58963;" d="M784 752H240C152 752 80 680 80 592v-416c0-88 72-160 160-160h544c88 0 160 72 160 160V592c0 88-72 160-160 160z m-544-64h544c35.2 0 65.6-19.2 81.6-46.4L552 387.2c-24-19.2-57.6-19.2-80 0L158.4 641.6c16 27.2 46.4 46.4 81.6 46.4z m544-608H240c-52.8 0-96 43.2-96 96V569.6L432 336c24-19.2 51.2-28.8 80-28.8 28.8 0 57.6 9.6 80 28.8l288 233.6V176c0-52.8-43.2-96-96-96z"  horiz-adv-x="1024" />

    
    <glyph glyph-name="biyanjing" unicode="&#59649;" d="M469.333333 214.613333c-36.053333 2.432-71.253333 8.533333-104.96 17.92l-69.802666-149.674666a42.368 42.368 0 0 0-56.533334-20.266667 42.666667 42.666667 0 0 0-20.821333 56.32l66.986667 143.658667a451.712 451.712 0 0 0-148.906667 112.682666 388.693333 388.693333 0 0 0-70.570667 119.338667 42.666667 42.666667 0 1 0 80.128 29.354667 303.445333 303.445333 0 0 1 55.210667-93.098667C270.634667 348.586667 383.018667 298.666667 505.728 298.666667c122.752 0 235.136 49.962667 305.706667 132.181333a303.445333 303.445333 0 0 1 55.210666 93.098667 42.666667 42.666667 0 0 0 80.128-29.354667 388.693333 388.693333 0 0 0-70.570666-119.338667 423.68 423.68 0 0 0-18.773334-20.48l104.362667-104.362666a42.666667 42.666667 0 0 0-0.298667-60.032 42.368 42.368 0 0 0-60.032-0.298667l-109.653333 109.653333c-20.48-14.08-42.24-26.581333-65.024-37.418666l66.901333-143.36a42.666667 42.666667 0 0 0-20.821333-56.362667 42.368 42.368 0 0 0-56.533333 20.266667l-69.717334 149.546666a520.533333 520.533333 0 0 0-91.946666-16.810666v-130.645334A42.666667 42.666667 0 0 0 512 42.666667c-23.722667 0-42.666667 18.944-42.666667 42.24v129.706666zM176.128 371.626667a42.368 42.368 0 0 0 60.032-0.256 42.666667 42.666667 0 0 0 0.298667-60.074667l-121.216-121.216a42.368 42.368 0 0 0-60.074667 0.298667 42.666667 42.666667 0 0 0-0.298667 60.032l121.258667 121.258666z"  horiz-adv-x="1024" />

    
    <glyph glyph-name="guanli" unicode="&#58975;" d="M447.61088 337.67424c-155.84256 0-282.63424 122.7776-282.63424 273.68448S291.76832 885.03296 447.61088 885.03296 730.24512 762.2656 730.24512 611.34848 603.45344 337.67424 447.61088 337.67424z m0 496.15872c-127.61088 0-231.43424-99.80928-231.43424-222.48448S320 388.864 447.61088 388.864s231.43424 99.80928 231.43424 222.48448c0 122.68544-103.82336 222.48448-231.43424 222.48448zM742.73792 41.89184c-49.57184 0-89.88672 39.3216-89.88672 87.66464 0 48.3328 40.32512 87.6544 89.88672 87.6544s89.88672-39.3216 89.88672-87.6544c0.01024-48.34304-40.31488-87.66464-89.88672-87.66464z m0 124.1088c-21.32992 0-38.68672-16.35328-38.68672-36.4544s17.3568-36.46464 38.68672-36.46464 38.68672 16.36352 38.68672 36.46464-17.3568 36.4544-38.68672 36.4544zM698.15296-114.19648l-23.10144 6.32832a251.1872 251.1872 0 0 0-103.74144 57.42592l-19.38432 17.89952 18.4832 18.83136c6.66624 6.79936 10.3424 15.57504 10.3424 24.71936 0 20.10112-17.3568 36.4544-38.68672 36.4544-3.08224 0-6.1952-0.38912-9.56416-1.1776l-24.3712-5.79584-6.31808 24.24832a234.1376 234.1376 0 0 0-7.55712 59.02336c0 26.30656 4.41344 52.28544 13.12768 77.19936l7.0656 20.224 21.1456-3.38944c2.41664-0.38912 4.53632-0.58368 6.47168-0.58368 21.32992 0 38.68672 16.35328 38.68672 36.4544 0 6.64576-1.88416 12.96384-5.60128 18.76992l-12.14464 18.96448 17.26464 14.45888a248.97536 248.97536 0 0 0 93.40928 49.16224l24.92416 6.98368 6.69696-24.9856c4.352-16.19968 19.75296-27.51488 37.43744-27.51488s33.08544 11.30496 37.43744 27.51488l6.69696 24.9856 24.92416-6.98368a251.92448 251.92448 0 0 0 95.93856-51.29216l14.14144-12.16512-7.24992-17.18272a34.26304 34.26304 0 0 1-2.75456-13.44512c0-19.94752 17.09056-36.20864 38.1952-36.46464l0.83968 0.0512 18.0736 0.50176 6.52288-16.85504a233.65632 233.65632 0 0 0 6.1952-150.35392l-7.1168-24.22784-24.33024 6.78912a40.6528 40.6528 0 0 1-11.02848 1.54624c-21.32992 0-38.68672-16.35328-38.68672-36.4544 0-8.8576 3.4816-17.42848 9.79968-24.12544l18.29888-19.41504-20.15232-17.47968a251.5968 251.5968 0 0 0-98.05824-52.28544l-23.10144-6.32832-7.85408 22.64064c-5.21216 15.04256-19.97824 25.14944-36.74112 25.14944s-31.52896-10.10688-36.74112-25.14944l-7.8336-22.67136z m44.58496 98.99008c29.67552 0 56.7808-14.19264 73.3184-36.97664a201.25696 201.25696 0 0 1 41.216 21.6576 85.32992 85.32992 0 0 0-7.936 35.97312c0 47.73888 39.35232 86.69184 88.09472 87.63392a182.48704 182.48704 0 0 1-4.70016 81.90976c-41.05216 8.09984-72.04864 43.55072-72.04864 85.93408 0 4.68992 0.37888 9.32864 1.13664 13.90592a202.02496 202.02496 0 0 1-43.37664 23.94112c-16.16896-24.69888-44.4416-40.47872-75.70432-40.47872-31.27296 0-59.5456 15.80032-75.7248 40.50944a196.7104 196.7104 0 0 1-38.67648-20.65408c2.38592-7.92576 3.61472-16.16896 3.61472-24.49408 0-45.54752-35.82976-83.0976-81.44896-87.26528a181.92384 181.92384 0 0 1-3.30752-67.86048c47.18592-2.6112 84.75648-40.8576 84.75648-87.51104a85.42208 85.42208 0 0 0-8.83712-37.888 200.12032 200.12032 0 0 1 46.30528-25.31328c16.5376 22.784 43.64288 36.97664 73.3184 36.97664zM34.304-91.32032a25.6 25.6 0 0 0-25.6 25.6c0 250.66496 210.87232 454.59456 470.05696 454.59456a25.6 25.6 0 1 0 0-51.2c-230.9632 0-418.85696-180.96128-418.85696-403.39456a25.6 25.6 0 0 0-25.6-25.6z"  horiz-adv-x="1024" />

    
    <glyph glyph-name="shebei" unicode="&#58976;" d="M893.11232-120.8832H112.14848c-47.23712 0-85.67808 39.04512-85.67808 87.04v245.76c0 47.99488 38.43072 87.04 85.67808 87.04h304.86528V426.68032c0 53.23776 38.4 96.55296 85.61664 96.55296s85.6064-43.30496 85.6064-96.55296v-127.72352h304.86528c47.23712 0 85.67808-39.04512 85.67808-87.04v-245.76c0.01024-47.98464-38.43072-87.04-85.66784-87.04z m-780.96384 368.64c-19.00544 0-34.47808-16.0768-34.47808-35.84v-245.76c0-19.7632 15.4624-35.84 34.47808-35.84h780.96384c19.00544 0 34.47808 16.0768 34.47808 35.84v245.76c0 19.7632-15.47264 35.84-34.47808 35.84H537.0368V426.68032c0 24.576-15.75936 45.35296-34.4064 45.35296-18.65728 0-34.41664-20.76672-34.41664-45.35296v-178.92352H112.14848zM749.6704 442.39872a25.6 25.6 0 0 0-25.6 25.6c0 124.45696-99.33824 225.71008-221.44 225.71008S281.1904 592.45568 281.1904 467.99872a25.6 25.6 0 1 0-51.2 0c0 152.68864 122.30656 276.91008 272.64 276.91008S775.2704 620.68736 775.2704 467.99872a25.6 25.6 0 0 0-25.6-25.6zM881.5104 449.40288a25.6 25.6 0 0 0-25.6 25.6c0 194.79552-158.48448 353.28-353.28 353.28s-353.28-158.48448-353.28-353.28a25.6 25.6 0 1 0-51.2 0c0 223.0272 181.4528 404.48 404.48 404.48s404.48-181.4528 404.48-404.48a25.6 25.6 0 0 0-25.6-25.6zM199.79264 22.19008c-36.70016 0-66.56 29.85984-66.56 66.56s29.85984 66.56 66.56 66.56 66.56-29.85984 66.56-66.56-29.85984-66.56-66.56-66.56z m0 81.92c-8.46848 0-15.36-6.89152-15.36-15.36s6.89152-15.36 15.36-15.36 15.36 6.89152 15.36 15.36-6.89152 15.36-15.36 15.36zM353.24928 22.19008c-36.70016 0-66.56 29.85984-66.56 66.56s29.85984 66.56 66.56 66.56 66.56-29.85984 66.56-66.56-29.85984-66.56-66.56-66.56z m0 81.92c-8.46848 0-15.36-6.89152-15.36-15.36s6.89152-15.36 15.36-15.36 15.36 6.89152 15.36 15.36-6.89152 15.36-15.36 15.36z"  horiz-adv-x="1024" />

    
    <glyph glyph-name="zhanghu1" unicode="&#58977;" d="M931.96288-87.17312H92.03712c-50.67776 0-91.91424 49.39776-91.91424 110.11072V699.05408c0 60.7232 41.22624 110.11072 91.91424 110.11072h839.91552c50.67776 0 91.91424-49.39776 91.91424-110.11072V22.9376c0-60.70272-41.22624-110.11072-91.904-110.11072zM92.03712 757.97504c-22.0672 0-40.71424-26.9824-40.71424-58.91072V22.9376c0-31.92832 18.64704-58.91072 40.71424-58.91072h839.91552c22.0672 0 40.71424 26.9824 40.71424 58.91072V699.05408c0 31.93856-18.6368 58.91072-40.71424 58.91072H92.03712zM963.44064 183.1424H641.1776c-111.90272 0-202.94656 79.79008-202.94656 177.85856s91.04384 177.85856 202.94656 177.85856h322.26304c13.01504 0 26.18368-1.11616 39.13728-3.33824l21.28896-3.6352v-341.79072l-21.2992-3.62496a233.54368 233.54368 0 0 0-39.12704-3.328zM641.1776 487.65952c-83.67104 0-151.74656-56.82176-151.74656-126.65856s68.07552-126.65856 151.74656-126.65856h322.26304c3.06176 0 6.144 0.08192 9.22624 0.23552V487.424a173.93664 173.93664 0 0 1-9.22624 0.23552H641.1776zM648.86784 361.00096m-55.18336 0a55.18336 55.18336 0 1 1 110.36672 0 55.18336 55.18336 0 1 1-110.36672 0Z"  horiz-adv-x="1024" />

    
    <glyph glyph-name="bangding1" unicode="&#58978;" d="M631.04 84.48c-21.76 0-43.52 8.96-60.16 25.6L385.28 295.68c-33.28 33.28-33.28 87.04-1.28 119.04l79.36 79.36 43.52-43.52-80.64-79.36c-8.96-8.96-7.68-23.04 1.28-32L613.12 153.6c8.96-8.96 24.32-10.24 32-1.28L953.6 460.8c3.84 3.84 6.4 10.24 6.4 15.36 0 6.4-2.56 12.8-7.68 16.64L768 678.4c-5.12 5.12-10.24 7.68-16.64 7.68-5.12 0-11.52-2.56-15.36-6.4l-104.96-104.96-43.52 43.52 104.96 104.96c15.36 15.36 37.12 24.32 60.16 24.32 21.76 0 43.52-8.96 58.88-25.6l185.6-185.6c15.36-15.36 24.32-37.12 25.6-58.88 0-23.04-7.68-43.52-24.32-60.16L688.64 108.8c-15.36-16.64-37.12-24.32-57.6-24.32zM284.16 8.96c-21.76 0-43.52 8.96-60.16 25.6L38.4 220.16C5.12 253.44 5.12 307.2 37.12 339.2L345.6 647.68c32 32 85.76 32 119.04-1.28L648.96 460.8c33.28-33.28 33.28-87.04 1.28-119.04l-80.64-80.64-43.52 43.52 80.64 80.64c8.96 8.96 7.68 23.04-1.28 32L421.12 602.88c-8.96 8.96-24.32 10.24-32 1.28L80.64 295.68c-8.96-8.96-7.68-23.04 1.28-32l185.6-185.6c8.96-8.96 24.32-10.24 32-1.28l96 96 43.52-43.52-96-96c-16.64-15.36-38.4-24.32-58.88-24.32z"  horiz-adv-x="1024" />

    
    <glyph glyph-name="kefu2" unicode="&#58980;" d="M588.8-10.24v64c70.4 0 145.92 65.28 181.76 157.44l60.16-23.04C784.64 69.12 687.36-10.24 588.8-10.24zM849.92 533.76h-64c0 152.32-124.16 276.48-276.48 276.48s-276.48-124.16-276.48-276.48h-64c0 188.16 153.6 340.48 340.48 340.48s340.48-152.32 340.48-340.48zM218.88 151.04C112.64 151.04 25.6 236.8 25.6 343.04v48.64C25.6 499.2 112.64 584.96 218.88 584.96c51.2 0 93.44-42.24 93.44-93.44V243.2c0-51.2-42.24-92.16-93.44-92.16z m0 369.92C147.2 520.96 89.6 463.36 89.6 391.68v-48.64c0-71.68 57.6-129.28 129.28-129.28 16.64 0 29.44 12.8 29.44 29.44V491.52c0 16.64-12.8 29.44-29.44 29.44zM798.72 151.04c-51.2 0-93.44 42.24-93.44 93.44V491.52c0 51.2 42.24 93.44 93.44 93.44 106.24 0 193.28-87.04 193.28-193.28v-48.64c0-106.24-87.04-192-193.28-192z m0 369.92c-16.64 0-29.44-12.8-29.44-29.44V243.2c0-16.64 12.8-29.44 29.44-29.44 71.68 0 129.28 57.6 129.28 129.28v48.64c0 71.68-57.6 129.28-129.28 129.28zM509.44-108.8c-69.12 0-124.16 56.32-124.16 124.16s56.32 124.16 124.16 124.16 124.16-56.32 124.16-124.16-56.32-124.16-124.16-124.16z m0 185.6c-33.28 0-60.16-26.88-60.16-60.16s26.88-60.16 60.16-60.16 60.16 26.88 60.16 60.16-26.88 60.16-60.16 60.16z"  horiz-adv-x="1024" />

    
    <glyph glyph-name="shezhi2" unicode="&#58982;" d="M604.16-93.44l-7.68 32c-8.96 39.68-43.52 67.84-84.48 67.84s-75.52-28.16-84.48-67.84l-7.68-32-32 8.96c-79.36 21.76-153.6 62.72-213.76 121.6l-24.32 23.04 24.32 23.04c17.92 16.64 26.88 39.68 26.88 62.72 0 48.64-39.68 87.04-87.04 87.04-8.96 0-19.2-1.28-28.16-5.12l-30.72-10.24-8.96 32c-12.8 43.52-19.2 89.6-19.2 134.4 0 39.68 5.12 78.08 14.08 116.48l8.96 34.56 33.28-12.8c10.24-3.84 20.48-6.4 30.72-6.4 48.64 0 87.04 39.68 87.04 87.04 0 26.88-12.8 52.48-34.56 69.12l-28.16 21.76 25.6 25.6c61.44 64 139.52 108.8 224 131.84l32 8.96 7.68-32c8.96-39.68 43.52-67.84 84.48-67.84s75.52 28.16 84.48 67.84l7.68 32 32-8.96c85.76-23.04 163.84-69.12 225.28-133.12l24.32-25.6-26.88-21.76c-20.48-16.64-33.28-40.96-33.28-67.84 0-48.64 39.68-87.04 87.04-87.04 8.96 0 19.2 1.28 28.16 5.12l33.28 11.52 7.68-34.56c8.96-38.4 14.08-76.8 14.08-115.2 0-44.8-6.4-89.6-19.2-133.12l-8.96-30.72-30.72 8.96c-7.68 2.56-16.64 3.84-25.6 3.84-48.64 0-87.04-39.68-87.04-87.04 0-23.04 8.96-44.8 25.6-61.44l23.04-23.04-20.48-21.76c-60.16-58.88-135.68-102.4-216.32-122.88l-32-8.96zM512 70.4c58.88 0 111.36-33.28 135.68-84.48 49.92 16.64 97.28 43.52 138.24 79.36-15.36 24.32-23.04 52.48-23.04 81.92 0 83.2 67.84 151.04 151.04 151.04h10.24c6.4 29.44 8.96 57.6 8.96 87.04 0 23.04-2.56 47.36-6.4 70.4-5.12 0-8.96-1.28-14.08-1.28-83.2 0-151.04 67.84-151.04 151.04 0 33.28 11.52 66.56 32 92.16-42.24 38.4-92.16 67.84-145.92 85.76-24.32-51.2-76.8-84.48-135.68-84.48s-111.36 33.28-135.68 84.48c-52.48-17.92-101.12-46.08-143.36-83.2 21.76-26.88 33.28-58.88 33.28-94.72 0-83.2-67.84-151.04-151.04-151.04-6.4 0-11.52 0-17.92 1.28-3.84-23.04-6.4-47.36-6.4-70.4 0-29.44 2.56-58.88 8.96-88.32 5.12 0 8.96 1.28 14.08 1.28 83.2 0 151.04-67.84 151.04-151.04 0-30.72-8.96-58.88-25.6-83.2 39.68-33.28 85.76-60.16 135.68-76.8 25.6 49.92 78.08 83.2 136.96 83.2zM512 221.44c-89.6 0-162.56 72.96-162.56 162.56S422.4 546.56 512 546.56 674.56 473.6 674.56 384h-64c0 55.04-44.8 98.56-98.56 98.56s-98.56-44.8-98.56-98.56c0-55.04 44.8-98.56 98.56-98.56v-64z"  horiz-adv-x="1024" />

    
    <glyph glyph-name="weizhi" unicode="&#58983;" d="M505.6 139.52l-23.04 24.32C455.68 192 217.6 445.44 217.6 595.2 217.6 753.92 346.88 883.2 505.6 883.2S793.6 753.92 793.6 595.2C793.6 445.44 555.52 192 528.64 163.84l-23.04-24.32z m0 679.68C382.72 819.2 281.6 718.08 281.6 595.2c0-94.72 144.64-275.2 224-362.24C584.96 320 729.6 500.48 729.6 595.2 729.6 718.08 628.48 819.2 505.6 819.2zM505.6 473.6c-60.16 0-108.8 48.64-108.8 108.8s48.64 108.8 108.8 108.8 108.8-48.64 108.8-108.8-48.64-108.8-108.8-108.8z m0 153.6c-24.32 0-44.8-20.48-44.8-44.8s20.48-44.8 44.8-44.8 44.8 20.48 44.8 44.8-20.48 44.8-44.8 44.8zM907.52-64H103.68C60.16-64 25.6-26.88 25.6 19.2v8.96l158.72 250.88 53.76-34.56L90.88 11.52c2.56-6.4 7.68-11.52 12.8-11.52h803.84c5.12 0 10.24 5.12 12.8 11.52L773.12 245.76l53.76 34.56L985.6 28.16v-8.96c0-46.08-34.56-83.2-78.08-83.2z"  horiz-adv-x="1024" />

    
    <glyph glyph-name="yijian" unicode="&#58985;" d="M829.44-71.68h-627.2c-46.08 0-83.2 37.12-83.2 83.2V480l119.04 55.04 26.88-57.6-81.92-38.4v-427.52c0-10.24 8.96-19.2 19.2-19.2h627.2c10.24 0 19.2 8.96 19.2 19.2V439.04l-75.52 37.12 28.16 57.6 111.36-55.04v-467.2c0-46.08-37.12-83.2-83.2-83.2zM509.44 190.72L134.4 432.64l34.56 53.76 340.48-218.88L864 486.4l33.28-53.76zM829.44 409.6h-64V756.48c0 8.96-8.96 15.36-19.2 15.36h-460.8c-10.24 0-19.2-7.68-19.2-15.36V409.6h-64V756.48c0 43.52 37.12 79.36 83.2 79.36h460.8c46.08 0 83.2-35.84 83.2-79.36V409.6zM663.04 555.52h-307.2c-17.92 0-32 14.08-32 32s14.08 32 32 32h307.2c17.92 0 32-14.08 32-32s-14.08-32-32-32zM573.44 427.52h-217.6c-17.92 0-32 14.08-32 32s14.08 32 32 32h217.6c17.92 0 32-14.08 32-32s-14.08-32-32-32z"  horiz-adv-x="1024" />

    
    <glyph glyph-name="morentouxianglandi" unicode="&#58993;" d="M512.85504 378.88m-460.8 0a460.8 460.8 0 1 1 921.6 0 460.8 460.8 0 1 1-921.6 0ZM512.85504 501.76m-168.96 0a168.96 168.96 0 1 1 337.92 0 168.96 168.96 0 1 1-337.92 0ZM512.85504-81.92c136.68864 0 259.45088 59.53536 343.83872 154.06592-42.81856 116.90496-143.54432 205.89056-267.4432 232.192C573.44 281.6 512.85504 174.08 512.85504 174.08S445.44 286.72 432.44544 303.4624c-122.06592-27.35616-221.06112-115.69152-263.41888-231.33184C253.4144-22.38976 376.17664-81.92 512.85504-81.92z"  horiz-adv-x="1024" />

    
    <glyph glyph-name="morentouxianghuidi" unicode="&#58994;" d="M512.85504 378.88m-460.8 0a460.8 460.8 0 1 1 921.6 0 460.8 460.8 0 1 1-921.6 0ZM512.85504 501.76m-168.96 0a168.96 168.96 0 1 1 337.92 0 168.96 168.96 0 1 1-337.92 0ZM512.85504-81.92c136.68864 0 259.45088 59.53536 343.83872 154.06592-42.81856 116.90496-143.54432 205.89056-267.4432 232.192C573.44 281.6 512.85504 174.08 512.85504 174.08S445.44 286.72 432.44544 303.4624c-122.06592-27.35616-221.06112-115.69152-263.41888-231.33184C253.4144-22.38976 376.17664-81.92 512.85504-81.92z"  horiz-adv-x="1024" />

    
    <glyph glyph-name="morentouxiang" unicode="&#58996;" d="M512.85504 378.88m-460.8 0a460.8 460.8 0 1 1 921.6 0 460.8 460.8 0 1 1-921.6 0ZM512.85504 501.76m-168.96 0a168.96 168.96 0 1 1 337.92 0 168.96 168.96 0 1 1-337.92 0ZM512.85504-81.92c136.68864 0 259.45088 59.53536 343.83872 154.06592-42.81856 116.90496-143.54432 205.89056-267.4432 232.192C573.44 281.6 512.85504 174.08 512.85504 174.08S445.44 286.72 432.44544 303.4624c-122.06592-27.35616-221.06112-115.69152-263.41888-231.33184C253.4144-22.38976 376.17664-81.92 512.85504-81.92z"  horiz-adv-x="1024" />

    
    <glyph glyph-name="dianzan" unicode="&#58995;" d="M518.44096-24.09984h-0.0256a43.59168 43.59168 0 0 0-31.04256 12.89728l-350.07488 350.07488c-46.8992 46.8992-72.7296 109.25568-72.7296 175.58528 0 66.3296 25.8304 128.68608 72.7296 175.58528 96.8192 96.8192 254.35648 96.8192 351.17568 0l30.34624-30.34624 30.35136 30.34624c96.81408 96.81408 254.35136 96.82432 351.17568 0 46.99136-46.98624 72.78592-109.40928 72.64256-175.7696-0.14848-66.35008-26.25536-128.68608-73.50272-175.51872l-350.0032-349.99808a43.63776 43.63776 0 0 0-31.04256-12.85632zM312.8832 701.24544c-47.86176 0-95.70816-18.21184-132.14208-54.64576-35.29728-35.29728-54.7328-82.2272-54.7328-132.14208 0-49.92 19.43552-96.84992 54.7328-132.1472l337.69984-337.70496 337.69472 337.69472c35.65568 35.33824 55.30112 82.22208 55.40864 132.11136 0.10752 49.8944-19.29728 96.83968-54.64064 132.18304-72.87808 72.86784-191.4368 72.86272-264.2944 0l-73.78944-73.79456L445.0304 646.59968c-36.4288 36.4288-84.29568 54.64576-132.1472 54.64576z"  horiz-adv-x="1024" />

    
    <glyph glyph-name="xiaoxi1" unicode="&#58997;" d="M515.28192 5.13024a67.56352 67.56352 0 0 0-44.52864 16.75264l-68.5056 57.56416H175.36c-50.816 0-92.16 41.344-92.16 92.16V666.88c0 50.816 41.344 92.16 92.16 92.16h684.37504c50.816 0 92.16-41.344 92.16-92.16v-495.26784c0-50.816-41.344-92.16-92.16-92.16h-233.83552l-65.01376-56.60672a67.57376 67.57376 0 0 0-45.60384-17.7152zM175.36 697.6c-16.94208 0-30.72-13.77792-30.72-30.72v-495.26784c0-16.94208 13.77792-30.72 30.72-30.72h249.27232l86.46656-72.66816a6.2976 6.2976 0 0 1 8.46336 0.09728l0.68608 0.60928 82.65728 71.96672h256.83456c16.94208 0 30.72 13.77792 30.72 30.72V666.88c0 16.94208-13.77792 30.72-30.72 30.72H175.36zM310.18496 353.28c-30.976 0-56.32 25.344-56.32 56.32s25.344 56.32 56.32 56.32 56.32-25.344 56.32-56.32-25.344-56.32-56.32-56.32zM517.54496 353.28c-30.976 0-56.32 25.344-56.32 56.32s25.344 56.32 56.32 56.32 56.32-25.344 56.32-56.32-25.344-56.32-56.32-56.32zM724.90496 353.28c-30.976 0-56.32 25.344-56.32 56.32s25.344 56.32 56.32 56.32 56.32-25.344 56.32-56.32-25.344-56.32-56.32-56.32z"  horiz-adv-x="1024" />

    
    <glyph glyph-name="guzhang" unicode="&#58998;" d="M512-119.741935C234.231742-119.741935 8.258065 106.248258 8.258065 384 8.258065 661.768258 234.231742 887.741935 512 887.741935 789.751742 887.741935 1015.741935 661.768258 1015.741935 384c0-277.751742-225.990194-503.741935-503.741935-503.741935z m0 924.903225C279.76671 805.16129 90.83871 616.23329 90.83871 384S279.76671-37.16129 512-37.16129 933.16129 151.76671 933.16129 384 744.23329 805.16129 512 805.16129zM576 656.466581h-132.129032l16.516129-401.787871h99.096774l16.516129 401.787871zM509.935484 214.362839a66.064516 66.064516 0 1 1 0-132.129033 66.064516 66.064516 0 0 1 0 132.129033z"  horiz-adv-x="1024" />

    
    <glyph glyph-name="youhao" unicode="&#59000;" d="M526.484645-117.578323c-235.635613 0-427.321806 173.650581-427.321806 387.105033 0 202.53729 353.973677 553.389419 394.32258 592.747355L522.008774 890.054194l28.804129-27.482839c41.25729-39.357935 402.993548-390.259613 402.993549-593.061161 0-213.437935-191.686194-387.088516-427.321807-387.088517z m-3.848258 892.217807c-116.372645-118.701419-340.892903-374.602323-340.892903-505.12929 0-167.902968 154.657032-304.524387 344.741161-304.524388S871.225806 101.607226 871.225806 269.510194c0 130.444387-229.755871 386.593032-348.589419 505.12929zM540.820645 55.395097c-144.912516 0-262.804645 112.838194-262.804645 251.524129a41.290323 41.290323 0 1 0 82.580645 0c0-93.167484 80.846452-168.943484 180.224-168.943484a41.290323 41.290323 0 1 0 0-82.580645z"  horiz-adv-x="1024" />

    
    <glyph glyph-name="shijian" unicode="&#59001;" d="M511.78529-112.904258c-277.768258 0-503.741935 225.973677-503.741935 503.741935s225.973677 503.741935 503.741935 503.741936c277.751742 0 503.741935-225.973677 503.741936-503.741936s-225.973677-503.741935-503.741936-503.741935z m0 924.903226c-232.23329 0-421.16129-188.928-421.16129-421.161291 0-232.216774 188.928-421.16129 421.16129-421.16129s421.16129 188.928 421.161291 421.16129c0 232.216774-188.928 421.16129-421.161291 421.161291zM544.834065 654.451613h-66.064517v-330.322581h66.064517v330.322581zM739.096774 384H478.753032v-66.064516H739.096774v66.064516z"  horiz-adv-x="1024" />

    
    <glyph glyph-name="licheng" unicode="&#59003;" d="M303.500387-70.226581c-6.259613 0-12.634839 1.436903-18.597161 4.475871C114.258581 20.562581 8.258065 192.908387 8.258065 384 8.258065 661.768258 234.231742 887.741935 512 887.741935 789.751742 887.741935 1015.741935 661.768258 1015.741935 384c0-191.091613-106.000516-363.437419-276.612129-449.734194a41.240774 41.240774 0 0 0-55.477677 18.200775 41.273806 41.273806 0 0 0 18.200774 55.477677C844.535742 80.136258 933.16129 224.222968 933.16129 384 933.16129 616.23329 744.23329 805.16129 512 805.16129S90.83871 616.23329 90.83871 384c0-159.793548 88.642065-303.880258 231.324903-376.088774a41.290323 41.290323 0 0 0-18.663226-78.137807zM580.244645 332.469677a77.031226 77.031226 0 1 0-127.983484 85.768258c23.684129 35.344516 243.480774 135.068903 243.480774 135.068904S603.928774 367.814194 580.244645 332.469677z"  horiz-adv-x="1024" />

    
    <glyph glyph-name="lengque" unicode="&#59004;" d="M512 270.451613m-173.419355 0a173.419355 173.419355 0 1 1 346.83871 0 173.419355 173.419355 0 1 1-346.83871 0ZM514.758194 335.822452h-4.129033a47.632516 47.632516 0 0 0-47.483871 47.483871V841.628903A47.632516 47.632516 0 0 0 510.629161 889.112774h4.129033a47.632516 47.632516 0 0 0 47.483871-47.483871v-458.32258a47.632516 47.632516 0 0 0-47.483871-47.483871zM656.516129 679.919484h-129.370839a41.405935 41.405935 0 0 0-41.290322 41.290322c0 22.709677 18.580645 41.290323 41.290322 41.290323h129.370839c22.709677 0 41.290323-18.580645 41.290323-41.290323s-18.580645-41.290323-41.290323-41.290322zM656.516129 543.661419h-129.370839a41.405935 41.405935 0 0 0-41.290322 41.290323c0 22.709677 18.580645 41.290323 41.290322 41.290323h129.370839c22.709677 0 41.290323-18.580645 41.290323-41.290323s-18.580645-41.290323-41.290323-41.290323zM964.789677-96.355097c-6.309161 0-12.700903 1.453419-18.696258 4.508903l-135.795613 69.136517a118.618839 118.618839 0 0 1-94.901677 5.450322l-116.653419-43.371355a267.379613 267.379613 0 0 0-184.435613-0.677161l-130.659097 47.483871a119.708903 119.708903 0 0 1-101.342968-9.083871l-102.333935-59.557161a41.290323 41.290323 0 1 0-41.538065 71.349677l102.333936 59.573678a201.860129 201.860129 0 0 0 171.09058 15.326967l130.675613-47.483871a184.815484 184.815484 0 0 1 127.454968 0.462452l116.653419 43.387871a201.331613 201.331613 0 0 0 161.131355-9.298581l135.795613-69.136516a41.273806 41.273806 0 0 0-18.778839-78.071742zM59.226839 126.629161a41.290323 41.290323 0 0 0-20.810323 76.965162L152.526452 270.03871a172.874323 172.874323 0 0 0 146.498064 13.130322 41.273806 41.273806 0 0 0 24.708129-52.901161 41.240774 41.240774 0 0 0-52.901161-24.708129 90.739613 90.739613 0 0 1-76.750452-6.87071l-114.109935-66.427871a40.893935 40.893935 0 0 0-20.744258-5.632zM964.789677 126.629161c-7.068903 0-14.203871 1.800258-20.744258 5.615484l-114.126451 66.427871a90.723097 90.723097 0 0 1-76.750452 6.87071 41.290323 41.290323 0 1 0-28.193032 77.60929 173.122065 173.122065 0 0 0 146.498064-13.130322l114.126452-66.427871a41.25729 41.25729 0 0 0-20.810323-76.965162z"  horiz-adv-x="1024" />

    
    <glyph glyph-name="dianpingdianya" unicode="&#59005;" d="M900.806194-74.322581h-776.258065a75.098839 75.098839 0 0 0-75.016258 75.016258V551.919484H975.822452v-551.225807a75.082323 75.082323 0 0 0-75.016258-75.016258z m-768.677162 82.580646H893.241806V469.338839H132.129032V8.258065zM951.741935 462.451613H73.628903c-40.596645 0-73.628903 33.032258-73.628903 73.628903V719.14529c0 40.596645 33.032258 73.628903 73.628903 73.628904h131.435355V896h230.878968v-103.225806h162.072774V896H827.17729v-103.225806h124.564645C992.338581 792.774194 1025.370839 759.741935 1025.370839 719.14529v-183.048258c0-40.613161-33.032258-73.645419-73.628904-73.645419z m-869.16129 82.580645H942.790194v165.16129H744.596645V813.419355h-64v-103.225807H353.379097V813.419355h-65.717678v-103.225807H82.580645v-165.16129zM465.886968 266.322581h-231.225807v-66.064516h231.225807v66.064516zM796.209548 266.322581h-231.225806v-66.064516h231.225806v66.064516zM713.628903 348.903226h-66.064516v-231.225807h66.064516v231.225807z"  horiz-adv-x="1025" />

    


  </font>
</defs>
</svg>
